Tirra-Regular.ufo
<glyph name="numbersign" format="2">
  <advance width="1042"/>
  <unicode hex="0023"/>
  <outline>
    <contour>
      <point x="192" y="0" type="line"/>
      <point x="299" y="0" type="line"/>
      <point x="350" y="432" type="line"/>
      <point x="637" y="432" type="line"/>
      <point x="584" y="0" type="line"/>
      <point x="692" y="0" type="line"/>
      <point x="743" y="432" type="line"/>
      <point x="937" y="432" type="line"/>
      <point x="937" y="548" type="line"/>
      <point x="757" y="548" type="line"/>
      <point x="797" y="867" type="line"/>
      <point x="979" y="867" type="line"/>
      <point x="979" y="981" type="line"/>
      <point x="810" y="981" type="line"/>
      <point x="859" y="1372" type="line"/>
      <point x="753" y="1372" type="line"/>
      <point x="702" y="981" type="line"/>
      <point x="417" y="981" type="line"/>
      <point x="466" y="1372" type="line"/>
      <point x="360" y="1372" type="line"/>
      <point x="310" y="981" type="line"/>
      <point x="116" y="981" type="line"/>
      <point x="116" y="867" type="line"/>
      <point x="297" y="867" type="line"/>
      <point x="257" y="548" type="line"/>
      <point x="73" y="548" type="line"/>
      <point x="73" y="432" type="line"/>
      <point x="244" y="432" type="line"/>
    </contour>
    <contour>
      <point x="365" y="548" type="line"/>
      <point x="405" y="867" type="line"/>
      <point x="690" y="867" type="line"/>
      <point x="650" y="548" type="line"/>
    </contour>
  </outline>
</glyph>
<glyph name="ampersand" format="2">
  <advance width="1275"/>
  <unicode hex="0026"/>
  <outline>
    <contour>
      <point x="487" y="-25" type="curve" smooth="yes"/>
      <point x="679" y="-25"/>
      <point x="823" y="63"/>
      <point x="939" y="192" type="curve" smooth="yes"/>
      <point x="1072" y="346"/>
      <point x="1165" y="538"/>
      <point x="1226" y="745" type="curve"/>
      <point x="1074" y="745" type="line"/>
      <point x="1021" y="553"/>
      <point x="939" y="392"/>
      <point x="825" y="270" type="curve" smooth="yes"/>
      <point x="734" y="170"/>
      <point x="622" y="103"/>
      <point x="506" y="103" type="curve" smooth="yes"/>
      <point x="350" y="103"/>
      <point x="227" y="208"/>
      <point x="227" y="367" type="curve" smooth="yes"/>
      <point x="227" y="675"/>
      <point x="833" y="785"/>
      <point x="833" y="1139" type="curve" smooth="yes"/>
      <point x="833" y="1298"/>
      <point x="734" y="1412"/>
      <point x="567" y="1412" type="curve" smooth="yes"/>
      <point x="379" y="1412"/>
      <point x="251" y="1268"/>
      <point x="251" y="1085" type="curve" smooth="yes"/>
      <point x="251" y="791"/>
      <point x="542" y="405"/>
      <point x="842" y="168" type="curve" smooth="yes"/>
      <point x="968" y="69"/>
      <point x="1091" y="6"/>
      <point x="1199" y="-25" type="curve"/>
      <point x="1243" y="109" type="line"/>
      <point x="1154" y="137"/>
      <point x="1049" y="194"/>
      <point x="939" y="276" type="curve" smooth="yes"/>
      <point x="675" y="477"/>
      <point x="392" y="825"/>
      <point x="392" y="1089" type="curve" smooth="yes"/>
      <point x="392" y="1205"/>
      <point x="460" y="1294"/>
      <point x="567" y="1294" type="curve" smooth="yes"/>
      <point x="662" y="1294"/>
      <point x="700" y="1220"/>
      <point x="700" y="1137" type="curve" smooth="yes"/>
      <point x="700" y="838"/>
      <point x="69" y="764"/>
      <point x="69" y="356" type="curve" smooth="yes"/>
      <point x="69" y="132"/>
      <point x="242" y="-25"/>
    </contour>
  </outline>
</glyph>
<glyph name="quotesingle" format="2">
  <advance width="517"/>
  <unicode hex="0027"/>
  <outline>
    <contour>
      <point x="206" y="924" type="line"/>
      <point x="306" y="924" type="line"/>
      <point x="339" y="1270" type="line"/>
      <point x="344" y="1458" type="line"/>
      <point x="170" y="1458" type="line"/>
      <point x="175" y="1270" type="line"/>
    </contour>
  </outline>
</glyph>
<glyph name="parenleft" format="2">
  <advance width="631"/>
  <unicode hex="0028"/>
  <outline>
    <contour>
      <point x="453" y="-371" type="curve"/>
      <point x="553" y="-322" type="line"/>
      <point x="390" y="-54"/>
      <point x="310" y="263"/>
      <point x="310" y="586" type="curve" smooth="yes"/>
      <point x="310" y="909"/>
      <point x="390" y="1228"/>
      <point x="553" y="1496" type="curve"/>
      <point x="453" y="1545" type="line"/>
      <point x="278" y="1262"/>
      <point x="175" y="958"/>
      <point x="175" y="586" type="curve" smooth="yes"/>
      <point x="175" y="215"/>
      <point x="278" y="-88"/>
    </contour>
  </outline>
</glyph>
<glyph name="asterisk" format="2">
  <advance width="873"/>
  <unicode hex="002A"/>
  <outline>
    <contour>
      <point x="289" y="901" type="line"/>
      <point x="439" y="1078" type="line"/>
      <point x="584" y="901" type="line"/>
      <point x="664" y="958" type="line"/>
      <point x="544" y="1154" type="line"/>
      <point x="749" y="1239" type="line"/>
      <point x="717" y="1329" type="line"/>
      <point x="504" y="1279" type="line"/>
      <point x="485" y="1503" type="line"/>
      <point x="388" y="1503" type="line"/>
      <point x="369" y="1277" type="line"/>
      <point x="156" y="1329" type="line"/>
      <point x="126" y="1239" type="line"/>
      <point x="327" y="1154" type="line"/>
      <point x="208" y="958" type="line"/>
    </contour>
  </outline>
</glyph>
<glyph name="plus" format="2">
  <advance width="1042"/>
  <unicode hex="002B"/>
  <outline>
    <contour>
      <point x="455" y="221" type="line"/>
      <point x="586" y="221" type="line"/>
      <point x="586" y="635" type="line"/>
      <point x="971" y="635" type="line"/>
      <point x="971" y="757" type="line"/>
      <point x="586" y="757" type="line"/>
      <point x="586" y="1171" type="line"/>
      <point x="455" y="1171" type="line"/>
      <point x="455" y="757" type="line"/>
      <point x="71" y="757" type="line"/>
      <point x="71" y="635" type="line"/>
      <point x="455" y="635" type="line"/>
    </contour>
  </outline>
</glyph>
<glyph name="zero" format="2">
  <advance width="1042"/>
  <unicode hex="0030"/>
  <outline>
    <contour>
      <point x="521" y="-25" type="curve" smooth="yes"/>
      <point x="789" y="-25"/>
      <point x="949" y="227"/>
      <point x="949" y="677" type="curve" smooth="yes"/>
      <point x="949" y="1129"/>
      <point x="789" y="1372"/>
      <point x="521" y="1372" type="curve" smooth="yes"/>
      <point x="253" y="1372"/>
      <point x="94" y="1129"/>
      <point x="94" y="677" type="curve" smooth="yes"/>
      <point x="94" y="227"/>
      <point x="253" y="-25"/>
    </contour>
    <contour>
      <point x="521" y="105" type="curve" smooth="yes"/>
      <point x="360" y="105"/>
      <point x="253" y="280"/>
      <point x="253" y="677" type="curve" smooth="yes"/>
      <point x="253" y="1074"/>
      <point x="360" y="1241"/>
      <point x="521" y="1241" type="curve" smooth="yes"/>
      <point x="681" y="1241"/>
      <point x="791" y="1074"/>
      <point x="791" y="677" type="curve" smooth="yes"/>
      <point x="791" y="280"/>
      <point x="681" y="105"/>
    </contour>
  </outline>
</glyph>
<glyph name="one" format="2">
  <advance width="1042"/>
  <unicode hex="0031"/>
  <outline>
    <contour>
      <point x="166" y="0" type="line"/>
      <point x="920" y="0" type="line"/>
      <point x="920" y="135" type="line"/>
      <point x="639" y="135" type="line"/>
      <point x="639" y="1346" type="line"/>
      <point x="515" y="1346" type="line"/>
      <point x="443" y="1302"/>
      <point x="352" y="1270"/>
      <point x="232" y="1249" type="curve"/>
      <point x="232" y="1144" type="line"/>
      <point x="477" y="1144" type="line"/>
      <point x="477" y="135" type="line"/>
      <point x="166" y="135" type="line"/>
    </contour>
  </outline>
</glyph>
<glyph name="five" format="2">
  <advance width="1042"/>
  <unicode hex="0035"/>
  <outline>
    <contour>
      <point x="491" y="-25" type="curve" smooth="yes"/>
      <point x="724" y="-25"/>
      <point x="941" y="139"/>
      <point x="941" y="430" type="curve" smooth="yes"/>
      <point x="941" y="721"/>
      <point x="755" y="852"/>
      <point x="525" y="852" type="curve" smooth="yes"/>
      <point x="441" y="852"/>
      <point x="377" y="829"/>
      <point x="314" y="795" type="curve"/>
      <point x="350" y="1207" type="line"/>
      <point x="873" y="1207" type="line"/>
      <point x="873" y="1346" type="line"/>
      <point x="208" y="1346" type="line"/>
      <point x="164" y="700" type="line"/>
      <point x="251" y="645" type="line"/>
      <point x="331" y="698"/>
      <point x="390" y="728"/>
      <point x="485" y="728" type="curve" smooth="yes"/>
      <point x="662" y="728"/>
      <point x="776" y="616"/>
      <point x="776" y="424" type="curve" smooth="yes"/>
      <point x="776" y="232"/>
      <point x="643" y="109"/>
      <point x="477" y="109" type="curve" smooth="yes"/>
      <point x="314" y="109"/>
      <point x="213" y="183"/>
      <point x="132" y="263" type="curve"/>
      <point x="52" y="158" type="line"/>
      <point x="143" y="67"/>
      <point x="276" y="-25"/>
    </contour>
  </outline>
</glyph>
<glyph name="nine" format="2">
  <advance width="1042"/>
  <unicode hex="0039"/>
  <outline>
    <contour>
      <point x="428" y="-25" type="curve" smooth="yes"/>
      <point x="696" y="-25"/>
      <point x="939" y="181"/>
      <point x="939" y="726" type="curve" smooth="yes"/>
      <point x="939" y="1154"/>
      <point x="745" y="1372"/>
      <point x="479" y="1372" type="curve" smooth="yes"/>
      <point x="263" y="1372"/>
      <point x="84" y="1196"/>
      <point x="84" y="941" type="curve" smooth="yes"/>
      <point x="84" y="664"/>
      <point x="232" y="525"/>
      <point x="466" y="525" type="curve" smooth="yes"/>
      <point x="584" y="525"/>
      <point x="709" y="597"/>
      <point x="795" y="711" type="curve"/>
      <point x="789" y="842" type="line"/>
      <point x="694" y="700"/>
      <point x="582" y="648"/>
      <point x="493" y="648" type="curve" smooth="yes"/>
      <point x="320" y="648"/>
      <point x="238" y="764"/>
      <point x="238" y="941" type="curve" smooth="yes"/>
      <point x="238" y="1120"/>
      <point x="341" y="1243"/>
      <point x="477" y="1243" type="curve" smooth="yes"/>
      <point x="677" y="1243"/>
      <point x="785" y="1057"/>
      <point x="785" y="726" type="curve" smooth="yes"/>
      <point x="785" y="265"/>
      <point x="620" y="109"/>
      <point x="424" y="109" type="curve" smooth="yes"/>
      <point x="337" y="109"/>
      <point x="255" y="151"/>
      <point x="200" y="217" type="curve"/>
      <point x="109" y="116" type="line"/>
      <point x="183" y="33"/>
      <point x="287" y="-25"/>
    </contour>
  </outline>
</glyph>
<glyph name="less" format="2">
  <advance width="1042"/>
  <unicode hex="003C"/>
  <outline>
    <contour>
      <point x="971" y="280" type="line"/>
      <point x="971" y="422" type="line"/>
      <point x="519" y="591" type="line"/>
      <point x="238" y="696" type="line"/>
      <point x="238" y="705" type="line"/>
      <point x="519" y="810" type="line"/>
      <point x="971" y="979" type="line"/>
      <point x="971" y="1120" type="line"/>
      <point x="71" y="766" type="line"/>
      <point x="71" y="635" type="line"/>
    </contour>
  </outline>
</glyph>
<glyph name="question" format="2">
  <advance width="890"/>
  <unicode hex="003F"/>
  <outline>
    <contour>
      <point x="337" y="413" type="curve"/>
      <point x="481" y="413" type="line"/>
      <point x="445" y="711"/>
      <point x="787" y="827"/>
      <point x="787" y="1104" type="curve" smooth="yes"/>
      <point x="787" y="1308"/>
      <point x="650" y="1439"/>
      <point x="439" y="1439" type="curve" smooth="yes"/>
      <point x="287" y="1439"/>
      <point x="168" y="1365"/>
      <point x="80" y="1266" type="curve"/>
      <point x="173" y="1182" type="line"/>
      <point x="240" y="1258"/>
      <point x="325" y="1304"/>
      <point x="420" y="1304" type="curve" smooth="yes"/>
      <point x="559" y="1304"/>
      <point x="629" y="1209"/>
      <point x="629" y="1093" type="curve" smooth="yes"/>
      <point x="629" y="865"/>
      <point x="293" y="745"/>
    </contour>
    <contour>
      <point x="413" y="-25" type="curve" smooth="yes"/>
      <point x="481" y="-25"/>
      <point x="534" y="27"/>
      <point x="534" y="101" type="curve" smooth="yes"/>
      <point x="534" y="177"/>
      <point x="481" y="230"/>
      <point x="413" y="230" type="curve" smooth="yes"/>
      <point x="348" y="230"/>
      <point x="293" y="177"/>
      <point x="293" y="101" type="curve" smooth="yes"/>
      <point x="293" y="27"/>
      <point x="348" y="-25"/>
    </contour>
  </outline>
</glyph>
<glyph name="at" format="2">
  <advance width="1777"/>
  <unicode hex="0040"/>
  <outline>
    <contour>
      <point x="844" y="-325" type="curve" smooth="yes"/>
      <point x="992" y="-325"/>
      <point x="1123" y="-289"/>
      <point x="1245" y="-215" type="curve"/>
      <point x="1201" y="-118" type="line"/>
      <point x="1106" y="-175"/>
      <point x="987" y="-213"/>
      <point x="857" y="-213" type="curve" smooth="yes"/>
      <point x="496" y="-213"/>
      <point x="227" y="23"/>
      <point x="227" y="434" type="curve" smooth="yes"/>
      <point x="227" y="928"/>
      <point x="591" y="1249"/>
      <point x="968" y="1249" type="curve" smooth="yes"/>
      <point x="1348" y="1249"/>
      <point x="1553" y="1002"/>
      <point x="1553" y="658" type="curve" smooth="yes"/>
      <point x="1553" y="382"/>
      <point x="1401" y="217"/>
      <point x="1268" y="217" type="curve" smooth="yes"/>
      <point x="1150" y="217"/>
      <point x="1110" y="299"/>
      <point x="1150" y="470" type="curve" smooth="yes"/>
      <point x="1232" y="888" type="line"/>
      <point x="1125" y="888" type="line"/>
      <point x="1101" y="804" type="line"/>
      <point x="1097" y="804" type="line"/>
      <point x="1057" y="873"/>
      <point x="1000" y="905"/>
      <point x="926" y="905" type="curve" smooth="yes"/>
      <point x="679" y="905"/>
      <point x="523" y="639"/>
      <point x="523" y="417" type="curve" smooth="yes"/>
      <point x="523" y="225"/>
      <point x="635" y="120"/>
      <point x="776" y="120" type="curve" smooth="yes"/>
      <point x="869" y="120"/>
      <point x="962" y="183"/>
      <point x="1032" y="265" type="curve"/>
      <point x="1036" y="265" type="line"/>
      <point x="1051" y="158"/>
      <point x="1137" y="105"/>
      <point x="1253" y="105" type="curve" smooth="yes"/>
      <point x="1441" y="105"/>
      <point x="1669" y="297"/>
      <point x="1669" y="664" type="curve" smooth="yes"/>
      <point x="1669" y="1078"/>
      <point x="1403" y="1359"/>
      <point x="981" y="1359" type="curve" smooth="yes"/>
      <point x="512" y="1359"/>
      <point x="107" y="992"/>
      <point x="107" y="428" type="curve" smooth="yes"/>
      <point x="107" y="-59"/>
      <point x="432" y="-325"/>
    </contour>
    <contour>
      <point x="806" y="234" type="curve" smooth="yes"/>
      <point x="719" y="234"/>
      <point x="654" y="289"/>
      <point x="654" y="426" type="curve" smooth="yes"/>
      <point x="654" y="588"/>
      <point x="757" y="791"/>
      <point x="928" y="791" type="curve" smooth="yes"/>
      <point x="985" y="791"/>
      <point x="1023" y="768"/>
      <point x="1066" y="700" type="curve"/>
      <point x="1006" y="360" type="line"/>
      <point x="930" y="272"/>
      <point x="865" y="234"/>
    </contour>
  </outline>
</glyph>
<glyph name="B" format="2">
  <advance width="1239"/>
  <unicode hex="0042"/>
  <anchor x="601" y="1433" name="aboveUC"/>
  <anchor x="635" y="-46" name="belowLC"/>
  <outline>
    <contour>
      <point x="192" y="0" type="line"/>
      <point x="629" y="0" type="line" smooth="yes"/>
      <point x="939" y="0"/>
      <point x="1152" y="135"/>
      <point x="1152" y="405" type="curve" smooth="yes"/>
      <point x="1152" y="595"/>
      <point x="1034" y="705"/>
      <point x="867" y="738" type="curve"/>
      <point x="867" y="747" type="line"/>
      <point x="998" y="789"/>
      <point x="1072" y="909"/>
      <point x="1072" y="1047" type="curve" smooth="yes"/>
      <point x="1072" y="1287"/>
      <point x="880" y="1386"/>
      <point x="597" y="1386" type="curve" smooth="yes"/>
      <point x="192" y="1386" type="line"/>
    </contour>
    <contour>
      <point x="356" y="793" type="line"/>
      <point x="356" y="1253" type="line"/>
      <point x="574" y="1253" type="line" smooth="yes"/>
      <point x="795" y="1253"/>
      <point x="909" y="1192"/>
      <point x="909" y="1025" type="curve" smooth="yes"/>
      <point x="909" y="882"/>
      <point x="808" y="793"/>
      <point x="565" y="793" type="curve" smooth="yes"/>
    </contour>
    <contour>
      <point x="356" y="130" type="line"/>
      <point x="356" y="667" type="line"/>
      <point x="603" y="667" type="line" smooth="yes"/>
      <point x="850" y="667"/>
      <point x="990" y="584"/>
      <point x="990" y="409" type="curve" smooth="yes"/>
      <point x="990" y="219"/>
      <point x="846" y="130"/>
      <point x="603" y="130" type="curve" smooth="yes"/>
    </contour>
  </outline>
</glyph>
<glyph name="D" format="2">
  <advance width="1296"/>
  <unicode hex="0044"/>
  <anchor x="648" y="1433" name="aboveUC"/>
  <anchor x="641" y="-46" name="belowLC"/>
  <outline>
    <contour>
      <point x="192" y="0" type="line"/>
      <point x="542" y="0" type="line" smooth="yes"/>
      <point x="960" y="0"/>
      <point x="1186" y="259"/>
      <point x="1186" y="698" type="curve" smooth="yes"/>
      <point x="1186" y="1135"/>
      <point x="960" y="1386"/>
      <point x="534" y="1386" type="curve" smooth="yes"/>
      <point x="192" y="1386" type="line"/>
    </contour>
    <contour>
      <point x="356" y="135" type="line"/>
      <point x="356" y="1251" type="line"/>
      <point x="521" y="1251" type="line" smooth="yes"/>
      <point x="852" y="1251"/>
      <point x="1015" y="1049"/>
      <point x="1015" y="698" type="curve" smooth="yes"/>
      <point x="1015" y="346"/>
      <point x="852" y="135"/>
      <point x="521" y="135" type="curve" smooth="yes"/>
    </contour>
  </outline>
</glyph>
<glyph name="F" format="2">
  <advance width="1038"/>
  <unicode hex="0046"/>
  <anchor x="603" y="1433" name="aboveUC"/>
  <anchor x="280" y="-46" name="belowLC"/>
  <outline>
    <contour>
      <point x="192" y="0" type="line"/>
      <point x="356" y="0" type="line"/>
      <point x="356" y="626" type="line"/>
      <point x="888" y="626" type="line"/>
      <point x="888" y="766" type="line"/>
      <point x="356" y="766" type="line"/>
      <point x="356" y="1247" type="line"/>
      <point x="983" y="1247" type="line"/>
      <point x="983" y="1386" type="line"/>
      <point x="192" y="1386" type="line"/>
    </contour>
  </outline>
</glyph>
<glyph name="J" format="2">
  <advance width="1006"/>
  <unicode hex="004A"/>
  <anchor x="728" y="1433" name="aboveUC"/>
  <anchor x="527" y="-46" name="belowLC"/>
  <outline>
    <contour>
      <point x="436" y="-25" type="curve" smooth="yes"/>
      <point x="709" y="-25"/>
      <point x="821" y="166"/>
      <point x="821" y="407" type="curve" smooth="yes"/>
      <point x="821" y="1386" type="line"/>
      <point x="656" y="1386" type="line"/>
      <point x="656" y="422" type="line" smooth="yes"/>
      <point x="656" y="206"/>
      <point x="580" y="120"/>
      <point x="426" y="120" type="curve" smooth="yes"/>
      <point x="322" y="120"/>
      <point x="242" y="164"/>
      <point x="183" y="268" type="curve"/>
      <point x="71" y="196" type="line"/>
      <point x="147" y="48"/>
      <point x="270" y="-25"/>
    </contour>
  </outline>
</glyph>
<glyph name="L" format="2">
  <advance width="1019"/>
  <unicode hex="004C"/>
  <anchor x="274" y="1433" name="aboveUC"/>
  <anchor x="610" y="-46" name="belowLC"/>
  <outline>
    <contour>
      <point x="192" y="0" type="line"/>
      <point x="966" y="0" type="line"/>
      <point x="966" y="139" type="line"/>
      <point x="356" y="139" type="line"/>
      <point x="356" y="1386" type="line"/>
      <point x="192" y="1386" type="line"/>
    </contour>
  </outline>
</glyph>
<glyph name="N" format="2">
  <advance width="1361"/>
  <unicode hex="004E"/>
  <anchor x="702" y="1433" name="aboveUC"/>
  <anchor x="696" y="-46" name="belowLC"/>
  <outline>
    <contour>
      <point x="192" y="0" type="line"/>
      <point x="348" y="0" type="line"/>
      <point x="348" y="745" type="line" smooth="yes"/>
      <point x="348" y="888"/>
      <point x="335" y="1034"/>
      <point x="327" y="1173" type="curve"/>
      <point x="335" y="1173" type="line"/>
      <point x="384" y="1078"/>
      <point x="434" y="979"/>
      <point x="485" y="886" type="curve" smooth="yes"/>
      <point x="1000" y="0" type="line"/>
      <point x="1169" y="0" type="line"/>
      <point x="1169" y="1386" type="line"/>
      <point x="1013" y="1386" type="line"/>
      <point x="1013" y="648" type="line" smooth="yes"/>
      <point x="1013" y="504"/>
      <point x="1025" y="352"/>
      <point x="1034" y="213" type="curve"/>
      <point x="1025" y="213" type="line"/>
      <point x="979" y="308"/>
      <point x="926" y="405"/>
      <point x="876" y="498" type="curve" smooth="yes"/>
      <point x="363" y="1386" type="line"/>
      <point x="192" y="1386" type="line"/>
    </contour>
  </outline>
</glyph>
<glyph name="P" format="2">
  <advance width="1190"/>
  <unicode hex="0050"/>
  <anchor x="635" y="1433" name="aboveUC"/>
  <anchor x="284" y="-46" name="belowLC"/>
  <outline>
    <contour>
      <point x="192" y="0" type="line"/>
      <point x="356" y="0" type="line"/>
      <point x="356" y="557" type="line"/>
      <point x="588" y="557" type="line" smooth="yes"/>
      <point x="892" y="557"/>
      <point x="1097" y="692"/>
      <point x="1097" y="981" type="curve" smooth="yes"/>
      <point x="1097" y="1283"/>
      <point x="890" y="1386"/>
      <point x="580" y="1386" type="curve" smooth="yes"/>
      <point x="192" y="1386" type="line"/>
    </contour>
    <contour>
      <point x="356" y="690" type="line"/>
      <point x="356" y="1251" type="line"/>
      <point x="557" y="1251" type="line" smooth="yes"/>
      <point x="808" y="1251"/>
      <point x="933" y="1186"/>
      <point x="933" y="981" type="curve" smooth="yes"/>
      <point x="933" y="778"/>
      <point x="814" y="690"/>
      <point x="565" y="690" type="curve" smooth="yes"/>
    </contour>
  </outline>
</glyph>
<glyph name="Q" format="2">
  <advance width="1397"/>
  <unicode hex="0051"/>
  <anchor x="698" y="1433" name="aboveUC"/>
  <outline>
    <contour>
      <point x="698" y="-25" type="curve" smooth="yes"/>
      <point x="1044" y="-25"/>
      <point x="1287" y="255"/>
      <point x="1287" y="698" type="curve" smooth="yes"/>
      <point x="1287" y="1139"/>
      <point x="1044" y="1412"/>
      <point x="698" y="1412" type="curve" smooth="yes"/>
      <point x="352" y="1412"/>
      <point x="109" y="1142"/>
      <point x="109" y="698" type="curve" smooth="yes"/>
      <point x="109" y="255"/>
      <point x="352" y="-25"/>
    </contour>
    <contour>
      <point x="698" y="111" type="curve" smooth="yes"/>
      <point x="447" y="111"/>
      <point x="280" y="339"/>
      <point x="280" y="698" type="curve" smooth="yes"/>
      <point x="280" y="1049"/>
      <point x="447" y="1266"/>
      <point x="698" y="1266" type="curve" smooth="yes"/>
      <point x="952" y="1266"/>
      <point x="1118" y="1049"/>
      <point x="1118" y="698" type="curve" smooth="yes"/>
      <point x="1118" y="339"/>
      <point x="952" y="111"/>
    </contour>
    <contour>
      <point x="1120" y="-346" type="curve" smooth="yes"/>
      <point x="1201" y="-346"/>
      <point x="1272" y="-331"/>
      <point x="1315" y="-312" type="curve"/>
      <point x="1283" y="-187" type="line"/>
      <point x="1245" y="-198"/>
      <point x="1199" y="-206"/>
      <point x="1137" y="-206" type="curve" smooth="yes"/>
      <point x="971" y="-206"/>
      <point x="835" y="-130"/>
      <point x="778" y="16" type="curve"/>
      <point x="607" y="4" type="line"/>
      <point x="681" y="-196"/>
      <point x="857" y="-346"/>
    </contour>
  </outline>
</glyph>
<glyph name="R" format="2">
  <advance width="1192"/>
  <unicode hex="0052"/>
  <anchor x="618" y="1433" name="aboveUC"/>
  <anchor x="652" y="-46" name="belowLC"/>
  <outline>
    <contour>
      <point x="192" y="0" type="line"/>
      <point x="356" y="0" type="line"/>
      <point x="356" y="593" type="line"/>
      <point x="620" y="593" type="line" smooth="yes"/>
      <point x="901" y="593"/>
      <point x="1101" y="726"/>
      <point x="1101" y="1000" type="curve" smooth="yes"/>
      <point x="1101" y="1285"/>
      <point x="901" y="1386"/>
      <point x="620" y="1386" type="curve" smooth="yes"/>
      <point x="192" y="1386" type="line"/>
    </contour>
    <contour>
      <point x="356" y="726" type="line"/>
      <point x="356" y="1251" type="line"/>
      <point x="595" y="1251" type="line" smooth="yes"/>
      <point x="814" y="1251"/>
      <point x="937" y="1186"/>
      <point x="937" y="1000" type="curve" smooth="yes"/>
      <point x="937" y="816"/>
      <point x="814" y="726"/>
      <point x="595" y="726" type="curve" smooth="yes"/>
    </contour>
    <contour>
      <point x="954" y="0" type="line"/>
      <point x="1139" y="0" type="line"/>
      <point x="719" y="721" type="line"/>
      <point x="586" y="639" type="line"/>
    </contour>
  </outline>
</glyph>
<glyph name="T" format="2">
  <advance width="1127"/>
  <unicode hex="0054"/>
  <anchor x="563" y="1433" name="aboveUC"/>
  <anchor x="563" y="0" name="baseLC"/>
  <anchor x="563" y="-46" name="belowLC"/>
  <outline>
    <contour>
      <point x="481" y="0" type="line"/>
      <point x="645" y="0" type="line"/>
      <point x="645" y="1247" type="line"/>
      <point x="1068" y="1247" type="line"/>
      <point x="1068" y="1386" type="line"/>
      <point x="59" y="1386" type="line"/>
      <point x="59" y="1247" type="line"/>
      <point x="481" y="1247" type="line"/>
    </contour>
  </outline>
</glyph>
<glyph name="W" format="2">
  <advance width="1655"/>
  <unicode hex="0057"/>
  <anchor x="825" y="1433" name="aboveUC"/>
  <anchor x="831" y="-46" name="belowLC"/>
  <outline>
    <contour>
      <point x="341" y="0" type="line"/>
      <point x="536" y="0" type="line"/>
      <point x="751" y="850" type="line"/>
      <point x="774" y="960"/>
      <point x="800" y="1059"/>
      <point x="821" y="1167" type="curve"/>
      <point x="829" y="1167" type="line"/>
      <point x="850" y="1059"/>
      <point x="873" y="960"/>
      <point x="897" y="850" type="curve"/>
      <point x="1110" y="0" type="line"/>
      <point x="1306" y="0" type="line"/>
      <point x="1602" y="1386" type="line"/>
      <point x="1443" y="1386" type="line"/>
      <point x="1289" y="622" type="line"/>
      <point x="1262" y="474"/>
      <point x="1237" y="325"/>
      <point x="1209" y="175" type="curve"/>
      <point x="1201" y="175" type="line"/>
      <point x="1167" y="325"/>
      <point x="1133" y="474"/>
      <point x="1097" y="622" type="curve"/>
      <point x="905" y="1386" type="line"/>
      <point x="755" y="1386" type="line"/>
      <point x="555" y="622" type="line"/>
      <point x="521" y="472"/>
      <point x="487" y="325"/>
      <point x="455" y="175" type="curve"/>
      <point x="447" y="175" type="line"/>
      <point x="422" y="325"/>
      <point x="392" y="472"/>
      <point x="365" y="622" type="curve"/>
      <point x="219" y="1386" type="line"/>
      <point x="48" y="1386" type="line"/>
    </contour>
  </outline>
</glyph>
<glyph name="X" format="2">
  <advance width="1074"/>
  <unicode hex="0058"/>
  <anchor x="538" y="1433" name="aboveUC"/>
  <anchor x="527" y="-46" name="belowLC"/>
  <outline>
    <contour>
      <point x="33" y="0" type="line"/>
      <point x="204" y="0" type="line"/>
      <point x="411" y="382" type="line" smooth="yes"/>
      <point x="447" y="449"/>
      <point x="481" y="519"/>
      <point x="523" y="603" type="curve"/>
      <point x="531" y="603" type="line"/>
      <point x="576" y="519"/>
      <point x="614" y="449"/>
      <point x="652" y="382" type="curve" smooth="yes"/>
      <point x="859" y="0" type="line"/>
      <point x="1040" y="0" type="line"/>
      <point x="635" y="709" type="line"/>
      <point x="1015" y="1386" type="line"/>
      <point x="842" y="1386" type="line"/>
      <point x="650" y="1023" type="line" smooth="yes"/>
      <point x="616" y="960"/>
      <point x="591" y="903"/>
      <point x="553" y="823" type="curve"/>
      <point x="544" y="823" type="line"/>
      <point x="500" y="903"/>
      <point x="470" y="960"/>
      <point x="434" y="1023" type="curve" smooth="yes"/>
      <point x="240" y="1386" type="line"/>
      <point x="59" y="1386" type="line"/>
      <point x="436" y="717" type="line"/>
    </contour>
  </outline>
</glyph>
<glyph name="Z" format="2">
  <advance width="1137"/>
  <unicode hex="005A"/>
  <anchor x="591" y="1433" name="aboveUC"/>
  <anchor x="595" y="-46" name="belowLC"/>
  <outline>
    <contour>
      <point x="94" y="0" type="line"/>
      <point x="1047" y="0" type="line"/>
      <point x="1047" y="139" type="line"/>
      <point x="299" y="139" type="line"/>
      <point x="1040" y="1289" type="line"/>
      <point x="1040" y="1386" type="line"/>
      <point x="162" y="1386" type="line"/>
      <point x="162" y="1247" type="line"/>
      <point x="835" y="1247" type="line"/>
      <point x="94" y="97" type="line"/>
    </contour>
  </outline>
</glyph>
<glyph name="bracketleft" format="2">
  <advance width="631"/>
  <unicode hex="005B"/>
  <outline>
    <contour>
      <point x="200" y="-320" type="line"/>
      <point x="569" y="-320" type="line"/>
      <point x="569" y="-227" type="line"/>
      <point x="322" y="-227" type="line"/>
      <point x="322" y="1401" type="line"/>
      <point x="569" y="1401" type="line"/>
      <point x="569" y="1494" type="line"/>
      <point x="200" y="1494" type="line"/>
    </contour>
  </outline>
</glyph>
<glyph name="bracketright" format="2">
  <advance width="631"/>
  <unicode hex="005D"/>
  <outline>
    <contour>
      <point x="61" y="-320" type="line"/>
      <point x="432" y="-320" type="line"/>
      <point x="432" y="1494" type="line"/>
      <point x="61" y="1494" type="line"/>
      <point x="61" y="1401" type="line"/>
      <point x="310" y="1401" type="line"/>
      <point x="310" y="-227" type="line"/>
      <point x="61" y="-227" type="line"/>
    </contour>
  </outline>
</glyph>
<glyph name="underscore" format="2">
  <advance width="1055"/>
  <unicode hex="005F"/>
  <outline>
    <contour>
      <point x="25" y="-263" type="line"/>
      <point x="1030" y="-263" type="line"/>
      <point x="1030" y="-151" type="line"/>
      <point x="25" y="-151" type="line"/>
    </contour>
  </outline>
</glyph>
<glyph name="a" format="2">
  <advance width="1059"/>
  <unicode hex="0061"/>
  <anchor x="563" y="1074" name="aboveLC"/>
  <anchor x="521" y="-46" name="belowLC"/>
  <anchor x="766" y="0" name="ogonekLC"/>
  <outline>
    <contour>
      <point x="411" y="-25" type="curve" smooth="yes"/>
      <point x="538" y="-25"/>
      <point x="654" y="42"/>
      <point x="753" y="124" type="curve"/>
      <point x="759" y="124" type="line"/>
      <point x="772" y="0" type="line"/>
      <point x="907" y="0" type="line"/>
      <point x="907" y="631" type="line" smooth="yes"/>
      <point x="907" y="882"/>
      <point x="804" y="1049"/>
      <point x="555" y="1049" type="curve" smooth="yes"/>
      <point x="390" y="1049"/>
      <point x="246" y="979"/>
      <point x="156" y="916" type="curve"/>
      <point x="219" y="808" type="line"/>
      <point x="299" y="859"/>
      <point x="407" y="916"/>
      <point x="529" y="916" type="curve" smooth="yes"/>
      <point x="700" y="916"/>
      <point x="745" y="783"/>
      <point x="745" y="648" type="curve"/>
      <point x="306" y="599"/>
      <point x="111" y="487"/>
      <point x="111" y="263" type="curve" smooth="yes"/>
      <point x="111" y="78"/>
      <point x="240" y="-25"/>
    </contour>
    <contour>
      <point x="455" y="105" type="curve" smooth="yes"/>
      <point x="352" y="105"/>
      <point x="270" y="154"/>
      <point x="270" y="276" type="curve" smooth="yes"/>
      <point x="270" y="411"/>
      <point x="390" y="496"/>
      <point x="745" y="540" type="curve"/>
      <point x="745" y="244" type="line"/>
      <point x="641" y="154"/>
      <point x="557" y="105"/>
    </contour>
  </outline>
</glyph>
<glyph name="b" format="2">
  <advance width="1165"/>
  <unicode hex="0062"/>
  <anchor x="618" y="1534" name="aboveUC"/>
  <anchor x="626" y="-46" name="belowLC"/>
  <outline>
    <contour>
      <point x="620" y="-25" type="curve" smooth="yes"/>
      <point x="857" y="-25"/>
      <point x="1066" y="179"/>
      <point x="1066" y="527" type="curve" smooth="yes"/>
      <point x="1066" y="844"/>
      <point x="924" y="1049"/>
      <point x="658" y="1049" type="curve" smooth="yes"/>
      <point x="542" y="1049"/>
      <point x="428" y="985"/>
      <point x="331" y="903" type="curve"/>
      <point x="337" y="1091" type="line"/>
      <point x="337" y="1505" type="line"/>
      <point x="175" y="1505" type="line"/>
      <point x="175" y="0" type="line"/>
      <point x="306" y="0" type="line"/>
      <point x="320" y="105" type="line"/>
      <point x="327" y="105" type="line"/>
      <point x="417" y="23"/>
      <point x="525" y="-25"/>
    </contour>
    <contour>
      <point x="595" y="111" type="curve" smooth="yes"/>
      <point x="525" y="111"/>
      <point x="430" y="141"/>
      <point x="337" y="221" type="curve"/>
      <point x="337" y="768" type="line"/>
      <point x="439" y="863"/>
      <point x="531" y="914"/>
      <point x="620" y="914" type="curve" smooth="yes"/>
      <point x="819" y="914"/>
      <point x="899" y="755"/>
      <point x="899" y="525" type="curve" smooth="yes"/>
      <point x="899" y="270"/>
      <point x="770" y="111"/>
    </contour>
  </outline>
</glyph>
<glyph name="e" format="2">
  <advance width="1042"/>
  <unicode hex="0065"/>
  <anchor x="555" y="1074" name="aboveLC"/>
  <anchor x="555" y="0" name="baseLC"/>
  <anchor x="555" y="-46" name="belowLC"/>
  <anchor x="732" y="0" name="ogonekLC"/>
  <outline>
    <contour>
      <point x="586" y="-25" type="curve" smooth="yes"/>
      <point x="728" y="-25"/>
      <point x="833" y="18"/>
      <point x="922" y="80" type="curve"/>
      <point x="865" y="181" type="line"/>
      <point x="791" y="132"/>
      <point x="707" y="103"/>
      <point x="605" y="103" type="curve" smooth="yes"/>
      <point x="405" y="103"/>
      <point x="270" y="251"/>
      <point x="259" y="474" type="curve"/>
      <point x="956" y="474" type="line"/>
      <point x="960" y="500"/>
      <point x="962" y="534"/>
      <point x="962" y="569" type="curve" smooth="yes"/>
      <point x="962" y="865"/>
      <point x="814" y="1049"/>
      <point x="557" y="1049" type="curve" smooth="yes"/>
      <point x="322" y="1049"/>
      <point x="99" y="844"/>
      <point x="99" y="510" type="curve" smooth="yes"/>
      <point x="99" y="175"/>
      <point x="316" y="-25"/>
    </contour>
    <contour>
      <point x="257" y="591" type="line"/>
      <point x="278" y="800"/>
      <point x="411" y="920"/>
      <point x="559" y="920" type="curve" smooth="yes"/>
      <point x="724" y="920"/>
      <point x="819" y="806"/>
      <point x="819" y="591" type="curve"/>
    </contour>
  </outline>
</glyph>
<glyph name="f" format="2">
  <advance width="605"/>
  <unicode hex="0066"/>
  <anchor x="455" y="1534" name="aboveUC"/>
  <anchor x="284" y="-46" name="belowLC"/>
  <outline>
    <contour>
      <point x="202" y="0" type="line"/>
      <point x="365" y="0" type="line"/>
      <point x="365" y="1194" type="line" smooth="yes"/>
      <point x="365" y="1327"/>
      <point x="411" y="1399"/>
      <point x="510" y="1399" type="curve" smooth="yes"/>
      <point x="546" y="1399"/>
      <point x="586" y="1391"/>
      <point x="626" y="1378" type="curve"/>
      <point x="662" y="1496" type="line"/>
      <point x="620" y="1515"/>
      <point x="555" y="1530"/>
      <point x="496" y="1530" type="curve" smooth="yes"/>
      <point x="297" y="1530"/>
      <point x="202" y="1403"/>
      <point x="202" y="1196" type="curve" smooth="yes"/>
    </contour>
    <contour>
      <point x="63" y="890" type="line"/>
      <point x="584" y="890" type="line"/>
      <point x="584" y="1023" type="line"/>
      <point x="208" y="1023" type="line"/>
      <point x="63" y="1015" type="line"/>
    </contour>
  </outline>
</glyph>
<glyph name="m" format="2">
  <advance width="1743"/>
  <unicode hex="006D"/>
  <anchor x="892" y="1074" name="aboveLC"/>
  <anchor x="886" y="-46" name="belowLC"/>
  <outline>
    <contour>
      <point x="175" y="0" type="line"/>
      <point x="337" y="0" type="line"/>
      <point x="337" y="745" type="line"/>
      <point x="434" y="854"/>
      <point x="523" y="909"/>
      <point x="601" y="909" type="curve" smooth="yes"/>
      <point x="736" y="909"/>
      <point x="797" y="823"/>
      <point x="797" y="629" type="curve" smooth="yes"/>
      <point x="797" y="0" type="line"/>
      <point x="960" y="0" type="line"/>
      <point x="960" y="745" type="line"/>
      <point x="1057" y="854"/>
      <point x="1142" y="909"/>
      <point x="1224" y="909" type="curve" smooth="yes"/>
      <point x="1357" y="909"/>
      <point x="1420" y="823"/>
      <point x="1420" y="629" type="curve" smooth="yes"/>
      <point x="1420" y="0" type="line"/>
      <point x="1581" y="0" type="line"/>
      <point x="1581" y="650" type="line" smooth="yes"/>
      <point x="1581" y="911"/>
      <point x="1479" y="1049"/>
      <point x="1270" y="1049" type="curve" smooth="yes"/>
      <point x="1148" y="1049"/>
      <point x="1038" y="968"/>
      <point x="930" y="852" type="curve"/>
      <point x="890" y="973"/>
      <point x="806" y="1049"/>
      <point x="650" y="1049" type="curve" smooth="yes"/>
      <point x="527" y="1049"/>
      <point x="420" y="973"/>
      <point x="329" y="873" type="curve"/>
      <point x="325" y="873" type="line"/>
      <point x="310" y="1023" type="line"/>
      <point x="175" y="1023" type="line"/>
    </contour>
  </outline>
</glyph>
<glyph name="o" format="2">
  <advance width="1142"/>
  <unicode hex="006F"/>
  <anchor x="569" y="1074" name="aboveLC"/>
  <anchor x="569" y="-46" name="belowLC"/>
  <anchor x="766" y="1023" name="hornLC"/>
  <anchor x="569" y="0" name="ogonekLC"/>
  <outline>
    <contour>
      <point x="569" y="-25" type="curve" smooth="yes"/>
      <point x="821" y="-25"/>
      <point x="1042" y="170"/>
      <point x="1042" y="510" type="curve" smooth="yes"/>
      <point x="1042" y="852"/>
      <point x="821" y="1049"/>
      <point x="569" y="1049" type="curve" smooth="yes"/>
      <point x="320" y="1049"/>
      <point x="99" y="852"/>
      <point x="99" y="510" type="curve" smooth="yes"/>
      <point x="99" y="170"/>
      <point x="320" y="-25"/>
    </contour>
    <contour>
      <point x="569" y="109" type="curve" smooth="yes"/>
      <point x="390" y="109"/>
      <point x="265" y="270"/>
      <point x="265" y="510" type="curve" smooth="yes"/>
      <point x="265" y="751"/>
      <point x="390" y="914"/>
      <point x="569" y="914" type="curve" smooth="yes"/>
      <point x="751" y="914"/>
      <point x="876" y="751"/>
      <point x="876" y="510" type="curve" smooth="yes"/>
      <point x="876" y="270"/>
      <point x="751" y="109"/>
    </contour>
  </outline>
</glyph>
<glyph name="p" format="2">
  <advance width="1167"/>
  <unicode hex="0070"/>
  <anchor x="618" y="1074" name="aboveLC"/>
  <anchor x="268" y="-432" name="belowLC"/>
  <outline>
    <contour>
      <point x="175" y="-436" type="line"/>
      <point x="337" y="-436" type="line"/>
      <point x="337" y="-86" type="line"/>
      <point x="333" y="94" type="line"/>
      <point x="430" y="18"/>
      <point x="527" y="-25"/>
      <point x="620" y="-25" type="curve" smooth="yes"/>
      <point x="857" y="-25"/>
      <point x="1066" y="179"/>
      <point x="1066" y="527" type="curve" smooth="yes"/>
      <point x="1066" y="844"/>
      <point x="924" y="1049"/>
      <point x="658" y="1049" type="curve" smooth="yes"/>
      <point x="540" y="1049"/>
      <point x="422" y="981"/>
      <point x="329" y="905" type="curve"/>
      <point x="325" y="905" type="line"/>
      <point x="310" y="1023" type="line"/>
      <point x="175" y="1023" type="line"/>
    </contour>
    <contour>
      <point x="595" y="111" type="curve" smooth="yes"/>
      <point x="525" y="111"/>
      <point x="434" y="141"/>
      <point x="337" y="221" type="curve"/>
      <point x="337" y="768" type="line"/>
      <point x="441" y="863"/>
      <point x="531" y="914"/>
      <point x="620" y="914" type="curve" smooth="yes"/>
      <point x="819" y="914"/>
      <point x="899" y="755"/>
      <point x="899" y="525" type="curve" smooth="yes"/>
      <point x="899" y="270"/>
      <point x="770" y="111"/>
    </contour>
  </outline>
</glyph>
<glyph name="q" format="2">
  <advance width="1167"/>
  <unicode hex="0071"/>
  <anchor x="584" y="1074" name="aboveLC"/>
  <anchor x="892" y="-432" name="belowLC"/>
  <outline>
    <contour>
      <point x="829" y="-436" type="line"/>
      <point x="992" y="-436" type="line"/>
      <point x="992" y="1023" type="line"/>
      <point x="861" y="1023" type="line"/>
      <point x="846" y="926" type="line"/>
      <point x="840" y="926" type="line"/>
      <point x="749" y="1006"/>
      <point x="664" y="1049"/>
      <point x="546" y="1049" type="curve" smooth="yes"/>
      <point x="312" y="1049"/>
      <point x="101" y="842"/>
      <point x="101" y="510" type="curve" smooth="yes"/>
      <point x="101" y="168"/>
      <point x="268" y="-25"/>
      <point x="523" y="-25" type="curve" smooth="yes"/>
      <point x="643" y="-25"/>
      <point x="753" y="40"/>
      <point x="835" y="120" type="curve"/>
      <point x="829" y="-67" type="line"/>
    </contour>
    <contour>
      <point x="559" y="111" type="curve" smooth="yes"/>
      <point x="373" y="111"/>
      <point x="268" y="261"/>
      <point x="268" y="510" type="curve" smooth="yes"/>
      <point x="268" y="749"/>
      <point x="403" y="914"/>
      <point x="572" y="914" type="curve" smooth="yes"/>
      <point x="658" y="914"/>
      <point x="738" y="882"/>
      <point x="829" y="802" type="curve"/>
      <point x="829" y="255" type="line"/>
      <point x="740" y="158"/>
      <point x="656" y="111"/>
    </contour>
  </outline>
</glyph>
<glyph name="r" format="2">
  <advance width="724"/>
  <unicode hex="0072"/>
  <anchor x="464" y="1074" name="aboveLC"/>
  <anchor x="253" y="-46" name="belowLC"/>
  <outline>
    <contour>
      <point x="175" y="0" type="line"/>
      <point x="337" y="0" type="line"/>
      <point x="337" y="662" type="line"/>
      <point x="407" y="840"/>
      <point x="512" y="903"/>
      <point x="599" y="903" type="curve" smooth="yes"/>
      <point x="641" y="903"/>
      <point x="662" y="899"/>
      <point x="692" y="890" type="curve"/>
      <point x="728" y="1028" type="line"/>
      <point x="696" y="1044"/>
      <point x="664" y="1049"/>
      <point x="620" y="1049" type="curve" smooth="yes"/>
      <point x="504" y="1049"/>
      <point x="401" y="966"/>
      <point x="329" y="838" type="curve"/>
      <point x="325" y="838" type="line"/>
      <point x="310" y="1023" type="line"/>
      <point x="175" y="1023" type="line"/>
    </contour>
  </outline>
</glyph>
<glyph name="s" format="2">
  <advance width="880"/>
  <unicode hex="0073"/>
  <anchor x="449" y="1074" name="aboveLC"/>
  <anchor x="449" y="0" name="baseLC"/>
  <anchor x="449" y="-46" name="belowLC"/>
  <outline>
    <contour>
      <point x="441" y="-25" type="curve" smooth="yes"/>
      <point x="679" y="-25"/>
      <point x="810" y="111"/>
      <point x="810" y="276" type="curve" smooth="yes"/>
      <point x="810" y="466"/>
      <point x="652" y="531"/>
      <point x="491" y="588" type="curve" smooth="yes"/>
      <point x="367" y="635"/>
      <point x="274" y="673"/>
      <point x="274" y="770" type="curve" smooth="yes"/>
      <point x="274" y="848"/>
      <point x="333" y="922"/>
      <point x="468" y="922" type="curve" smooth="yes"/>
      <point x="561" y="922"/>
      <point x="635" y="892"/>
      <point x="707" y="840" type="curve"/>
      <point x="781" y="935" type="line"/>
      <point x="702" y="1000"/>
      <point x="593" y="1049"/>
      <point x="466" y="1049" type="curve" smooth="yes"/>
      <point x="244" y="1049"/>
      <point x="118" y="922"/>
      <point x="118" y="762" type="curve" smooth="yes"/>
      <point x="118" y="593"/>
      <point x="268" y="519"/>
      <point x="420" y="464" type="curve" smooth="yes"/>
      <point x="538" y="422"/>
      <point x="654" y="375"/>
      <point x="654" y="268" type="curve" smooth="yes"/>
      <point x="654" y="177"/>
      <point x="584" y="101"/>
      <point x="447" y="101" type="curve" smooth="yes"/>
      <point x="316" y="101"/>
      <point x="223" y="143"/>
      <point x="137" y="215" type="curve"/>
      <point x="61" y="120" type="line"/>
      <point x="154" y="29"/>
      <point x="289" y="-25"/>
    </contour>
  </outline>
</glyph>
<glyph name="u" format="2">
  <advance width="1144"/>
  <unicode hex="0075"/>
  <anchor x="569" y="1074" name="aboveLC"/>
  <anchor x="542" y="0" name="baseLC"/>
  <anchor x="576" y="-46" name="belowLC"/>
  <anchor x="865" y="1044" name="hornLC"/>
  <anchor x="823" y="0" name="ogonekLC"/>
  <outline>
    <contour>
      <point x="474" y="-25" type="curve" smooth="yes"/>
      <point x="614" y="-25"/>
      <point x="717" y="50"/>
      <point x="812" y="162" type="curve"/>
      <point x="819" y="162" type="line"/>
      <point x="833" y="0" type="line"/>
      <point x="966" y="0" type="line"/>
      <point x="966" y="1023" type="line"/>
      <point x="806" y="1023" type="line"/>
      <point x="806" y="293" type="line"/>
      <point x="705" y="168"/>
      <point x="629" y="116"/>
      <point x="523" y="116" type="curve" smooth="yes"/>
      <point x="382" y="116"/>
      <point x="322" y="200"/>
      <point x="322" y="394" type="curve" smooth="yes"/>
      <point x="322" y="1023" type="line"/>
      <point x="162" y="1023" type="line"/>
      <point x="162" y="373" type="line" smooth="yes"/>
      <point x="162" y="111"/>
      <point x="259" y="-25"/>
    </contour>
  </outline>
</glyph>
<glyph name="braceleft" format="2">
  <advance width="631"/>
  <unicode hex="007B"/>
  <outline>
    <contour>
      <point x="479" y="-320" type="curve" smooth="yes"/>
      <point x="569" y="-320" type="line"/>
      <point x="569" y="-227" type="line"/>
      <point x="515" y="-227" type="line" smooth="yes"/>
      <point x="398" y="-227"/>
      <point x="367" y="-168"/>
      <point x="367" y="-31" type="curve" smooth="yes"/>
      <point x="367" y="97"/>
      <point x="377" y="208"/>
      <point x="377" y="354" type="curve" smooth="yes"/>
      <point x="377" y="485"/>
      <point x="346" y="557"/>
      <point x="255" y="582" type="curve"/>
      <point x="255" y="591" type="line"/>
      <point x="346" y="616"/>
      <point x="377" y="683"/>
      <point x="377" y="819" type="curve" smooth="yes"/>
      <point x="377" y="964"/>
      <point x="367" y="1076"/>
      <point x="367" y="1205" type="curve" smooth="yes"/>
      <point x="367" y="1342"/>
      <point x="398" y="1401"/>
      <point x="515" y="1401" type="curve" smooth="yes"/>
      <point x="569" y="1401" type="line"/>
      <point x="569" y="1494" type="line"/>
      <point x="479" y="1494" type="line" smooth="yes"/>
      <point x="314" y="1494"/>
      <point x="236" y="1433"/>
      <point x="236" y="1213" type="curve" smooth="yes"/>
      <point x="236" y="1061"/>
      <point x="253" y="947"/>
      <point x="253" y="802" type="curve" smooth="yes"/>
      <point x="253" y="721"/>
      <point x="215" y="639"/>
      <point x="71" y="639" type="curve"/>
      <point x="71" y="534" type="line"/>
      <point x="215" y="534"/>
      <point x="253" y="451"/>
      <point x="253" y="369" type="curve" smooth="yes"/>
      <point x="253" y="225"/>
      <point x="236" y="111"/>
      <point x="236" y="-40" type="curve" smooth="yes"/>
      <point x="236" y="-259"/>
      <point x="314" y="-320"/>
    </contour>
  </outline>
</glyph>
<glyph name="bar" format="2">
  <advance width="504"/>
  <unicode hex="007C"/>
  <outline>
    <contour>
      <point x="194" y="-527" type="line"/>
      <point x="310" y="-527" type="line"/>
      <point x="310" y="1583" type="line"/>
      <point x="194" y="1583" type="line"/>
    </contour>
  </outline>
</glyph>
<glyph name="exclamdown" format="2">
  <advance width="601"/>
  <unicode hex="00A1"/>
  <outline>
    <contour>
      <point x="219" y="-390" type="line"/>
      <point x="382" y="-390" type="line"/>
      <point x="377" y="-200" type="line"/>
      <point x="356" y="612" type="line"/>
      <point x="244" y="612" type="line"/>
      <point x="223" y="-200" type="line"/>
    </contour>
    <contour>
      <point x="299" y="795" type="curve" smooth="yes"/>
      <point x="365" y="795"/>
      <point x="420" y="846"/>
      <point x="420" y="924" type="curve" smooth="yes"/>
      <point x="420" y="998"/>
      <point x="365" y="1049"/>
      <point x="299" y="1049" type="curve" smooth="yes"/>
      <point x="234" y="1049"/>
      <point x="181" y="998"/>
      <point x="181" y="924" type="curve" smooth="yes"/>
      <point x="181" y="846"/>
      <point x="234" y="795"/>
    </contour>
  </outline>
</glyph>
<glyph name="yen" format="2">
  <advance width="1042"/>
  <unicode hex="00A5"/>
  <outline>
    <contour>
      <point x="439" y="0" type="line"/>
      <point x="601" y="0" type="line"/>
      <point x="601" y="327" type="line"/>
      <point x="945" y="327" type="line"/>
      <point x="945" y="424" type="line"/>
      <point x="601" y="424" type="line"/>
      <point x="601" y="567" type="line"/>
      <point x="945" y="567" type="line"/>
      <point x="945" y="667" type="line"/>
      <point x="643" y="667" type="line"/>
      <point x="992" y="1346" type="line"/>
      <point x="827" y="1346" type="line"/>
      <point x="658" y="979" type="line" smooth="yes"/>
      <point x="616" y="884"/>
      <point x="574" y="793"/>
      <point x="527" y="692" type="curve"/>
      <point x="519" y="692" type="line"/>
      <point x="472" y="793"/>
      <point x="432" y="886"/>
      <point x="390" y="979" type="curve" smooth="yes"/>
      <point x="221" y="1346" type="line"/>
      <point x="50" y="1346" type="line"/>
      <point x="396" y="667" type="line"/>
      <point x="97" y="667" type="line"/>
      <point x="97" y="567" type="line"/>
      <point x="439" y="567" type="line"/>
      <point x="439" y="424" type="line"/>
      <point x="97" y="424" type="line"/>
      <point x="97" y="327" type="line"/>
      <point x="439" y="327" type="line"/>
    </contour>
  </outline>
</glyph>
<glyph name="section" format="2">
  <advance width="1042"/>
  <unicode hex="00A7"/>
  <outline>
    <contour>
      <point x="496" y="-130" type="curve" smooth="yes"/>
      <point x="690" y="-130"/>
      <point x="831" y="-10"/>
      <point x="831" y="154" type="curve" smooth="yes"/>
      <point x="831" y="510"/>
      <point x="238" y="449"/>
      <point x="238" y="736" type="curve" smooth="yes"/>
      <point x="238" y="835"/>
      <point x="303" y="892"/>
      <point x="403" y="941" type="curve"/>
      <point x="327" y="1023" type="line"/>
      <point x="196" y="966"/>
      <point x="97" y="869"/>
      <point x="97" y="726" type="curve" smooth="yes"/>
      <point x="97" y="337"/>
      <point x="681" y="392"/>
      <point x="681" y="145" type="curve" smooth="yes"/>
      <point x="681" y="63"/>
      <point x="612" y="-4"/>
      <point x="496" y="-4" type="curve" smooth="yes"/>
      <point x="382" y="-4"/>
      <point x="306" y="37"/>
      <point x="234" y="105" type="curve"/>
      <point x="135" y="16" type="line"/>
      <point x="221" y="-75"/>
      <point x="348" y="-130"/>
    </contour>
    <contour>
      <point x="713" y="299" type="line"/>
      <point x="850" y="365"/>
      <point x="945" y="443"/>
      <point x="945" y="599" type="curve" smooth="yes"/>
      <point x="945" y="987"/>
      <point x="360" y="943"/>
      <point x="360" y="1180" type="curve" smooth="yes"/>
      <point x="360" y="1251"/>
      <point x="411" y="1317"/>
      <point x="531" y="1317" type="curve" smooth="yes"/>
      <point x="626" y="1317"/>
      <point x="700" y="1272"/>
      <point x="768" y="1218" type="curve"/>
      <point x="846" y="1323" type="line"/>
      <point x="768" y="1389"/>
      <point x="656" y="1443"/>
      <point x="525" y="1443" type="curve" smooth="yes"/>
      <point x="316" y="1443"/>
      <point x="211" y="1313"/>
      <point x="211" y="1171" type="curve" smooth="yes"/>
      <point x="211" y="821"/>
      <point x="804" y="884"/>
      <point x="804" y="586" type="curve" smooth="yes"/>
      <point x="804" y="477"/>
      <point x="740" y="428"/>
      <point x="624" y="382" type="curve"/>
    </contour>
  </outline>
</glyph>
<glyph name="germandbls" format="2">
  <advance width="1205"/>
  <unicode hex="00DF"/>
  <outline>
    <contour>
      <point x="810" y="-25" type="curve" smooth="yes"/>
      <point x="1015" y="-25"/>
      <point x="1144" y="109"/>
      <point x="1144" y="284" type="curve" smooth="yes"/>
      <point x="1144" y="629"/>
      <point x="747" y="578"/>
      <point x="747" y="789" type="curve" smooth="yes"/>
      <point x="747" y="939"/>
      <point x="960" y="1009"/>
      <point x="960" y="1222" type="curve" smooth="yes"/>
      <point x="960" y="1389"/>
      <point x="827" y="1526"/>
      <point x="603" y="1526" type="curve" smooth="yes"/>
      <point x="335" y="1526"/>
      <point x="175" y="1355"/>
      <point x="175" y="1093" type="curve" smooth="yes"/>
      <point x="175" y="0" type="line"/>
      <point x="335" y="0" type="line"/>
      <point x="335" y="1059" type="line" smooth="yes"/>
      <point x="335" y="1283"/>
      <point x="441" y="1395"/>
      <point x="599" y="1395" type="curve" smooth="yes"/>
      <point x="728" y="1395"/>
      <point x="802" y="1313"/>
      <point x="802" y="1205" type="curve" smooth="yes"/>
      <point x="802" y="1025"/>
      <point x="595" y="962"/>
      <point x="595" y="770" type="curve" smooth="yes"/>
      <point x="595" y="477"/>
      <point x="990" y="527"/>
      <point x="990" y="276" type="curve" smooth="yes"/>
      <point x="990" y="185"/>
      <point x="926" y="101"/>
      <point x="806" y="101" type="curve" smooth="yes"/>
      <point x="726" y="101"/>
      <point x="652" y="124"/>
      <point x="580" y="187" type="curve"/>
      <point x="515" y="80" type="line"/>
      <point x="599" y="8"/>
      <point x="696" y="-25"/>
    </contour>
  </outline>
</glyph>
<glyph name="ae" format="2">
  <advance width="1642"/>
  <unicode hex="00E6"/>
  <anchor x="857" y="1074" name="aboveLC"/>
  <anchor x="871" y="-46" name="belowLC"/>
  <outline>
    <contour>
      <point x="411" y="-25" type="curve" smooth="yes"/>
      <point x="542" y="-25"/>
      <point x="692" y="44"/>
      <point x="829" y="168" type="curve"/>
      <point x="907" y="67"/>
      <point x="1019" y="-25"/>
      <point x="1192" y="-25" type="curve" smooth="yes"/>
      <point x="1334" y="-25"/>
      <point x="1435" y="16"/>
      <point x="1522" y="80" type="curve"/>
      <point x="1465" y="181" type="line"/>
      <point x="1391" y="130"/>
      <point x="1310" y="103"/>
      <point x="1211" y="103" type="curve" smooth="yes"/>
      <point x="1030" y="103"/>
      <point x="890" y="255"/>
      <point x="886" y="474" type="curve"/>
      <point x="1555" y="474" type="line"/>
      <point x="1560" y="500"/>
      <point x="1562" y="531"/>
      <point x="1562" y="567" type="curve" smooth="yes"/>
      <point x="1562" y="861"/>
      <point x="1422" y="1049"/>
      <point x="1173" y="1049" type="curve" smooth="yes"/>
      <point x="1032" y="1049"/>
      <point x="914" y="962"/>
      <point x="833" y="827" type="curve"/>
      <point x="793" y="962"/>
      <point x="694" y="1049"/>
      <point x="540" y="1049" type="curve" smooth="yes"/>
      <point x="388" y="1049"/>
      <point x="246" y="979"/>
      <point x="156" y="916" type="curve"/>
      <point x="219" y="808" type="line"/>
      <point x="299" y="859"/>
      <point x="407" y="916"/>
      <point x="521" y="916" type="curve" smooth="yes"/>
      <point x="694" y="916"/>
      <point x="734" y="781"/>
      <point x="734" y="648" type="curve"/>
      <point x="308" y="599"/>
      <point x="111" y="487"/>
      <point x="111" y="263" type="curve" smooth="yes"/>
      <point x="111" y="78"/>
      <point x="240" y="-25"/>
    </contour>
    <contour>
      <point x="455" y="105" type="curve" smooth="yes"/>
      <point x="352" y="105"/>
      <point x="270" y="154"/>
      <point x="270" y="276" type="curve" smooth="yes"/>
      <point x="270" y="411"/>
      <point x="398" y="496"/>
      <point x="734" y="540" type="curve"/>
      <point x="734" y="487" type="line" smooth="yes"/>
      <point x="736" y="407"/>
      <point x="751" y="322"/>
      <point x="774" y="268" type="curve"/>
      <point x="677" y="164"/>
      <point x="550" y="105"/>
    </contour>
    <contour>
      <point x="886" y="586" type="line"/>
      <point x="907" y="787"/>
      <point x="1023" y="920"/>
      <point x="1169" y="920" type="curve" smooth="yes"/>
      <point x="1323" y="920"/>
      <point x="1420" y="806"/>
      <point x="1420" y="586" type="curve"/>
    </contour>
  </outline>
</glyph>
<glyph name="divide" format="2">
  <advance width="1042"/>
  <unicode hex="00F7"/>
  <outline>
    <contour>
      <point x="71" y="635" type="line"/>
      <point x="971" y="635" type="line"/>
      <point x="971" y="757" type="line"/>
      <point x="71" y="757" type="line"/>
    </contour>
    <contour>
      <point x="521" y="206" type="curve" smooth="yes"/>
      <point x="582" y="206"/>
      <point x="631" y="251"/>
      <point x="631" y="316" type="curve" smooth="yes"/>
      <point x="631" y="379"/>
      <point x="582" y="424"/>
      <point x="521" y="424" type="curve" smooth="yes"/>
      <point x="460" y="424"/>
      <point x="411" y="379"/>
      <point x="411" y="316" type="curve" smooth="yes"/>
      <point x="411" y="251"/>
      <point x="460" y="206"/>
    </contour>
    <contour>
      <point x="521" y="966" type="curve" smooth="yes"/>
      <point x="582" y="966"/>
      <point x="631" y="1011"/>
      <point x="631" y="1076" type="curve" smooth="yes"/>
      <point x="631" y="1139"/>
      <point x="582" y="1184"/>
      <point x="521" y="1184" type="curve" smooth="yes"/>
      <point x="460" y="1184"/>
      <point x="411" y="1139"/>
      <point x="411" y="1076" type="curve" smooth="yes"/>
      <point x="411" y="1011"/>
      <point x="460" y="966"/>
    </contour>
  </outline>
</glyph>
<glyph name="oslash" format="2">
  <advance width="1142"/>
  <unicode hex="00F8"/>
  <anchor x="569" y="1074" name="aboveLC"/>
  <anchor x="569" y="-46" name="belowLC"/>
  <outline>
    <contour>
      <point x="569" y="-25" type="curve" smooth="yes"/>
      <point x="821" y="-25"/>
      <point x="1042" y="170"/>
      <point x="1042" y="510" type="curve" smooth="yes"/>
      <point x="1042" y="852"/>
      <point x="821" y="1049"/>
      <point x="569" y="1049" type="curve" smooth="yes"/>
      <point x="320" y="1049"/>
      <point x="99" y="852"/>
      <point x="99" y="510" type="curve" smooth="yes"/>
      <point x="99" y="170"/>
      <point x="320" y="-25"/>
    </contour>
    <contour>
      <point x="569" y="105" type="curve" smooth="yes"/>
      <point x="388" y="105"/>
      <point x="259" y="261"/>
      <point x="259" y="517" type="curve" smooth="yes"/>
      <point x="259" y="753"/>
      <point x="390" y="918"/>
      <point x="569" y="918" type="curve" smooth="yes"/>
      <point x="753" y="918"/>
      <point x="882" y="757"/>
      <point x="882" y="504" type="curve" smooth="yes"/>
      <point x="882" y="265"/>
      <point x="751" y="105"/>
    </contour>
    <contour>
      <point x="170" y="-48" type="line"/>
      <point x="1044" y="1013" type="line"/>
      <point x="971" y="1072" type="line"/>
      <point x="97" y="10" type="line"/>
    </contour>
  </outline>
</glyph>
<glyph name="dotlessi" format="2">
  <advance width="515"/>
  <unicode hex="0131"/>
  <anchor x="259" y="1074" name="aboveLC"/>
  <anchor x="255" y="-46" name="belowLC"/>
  <anchor x="238" y="0" name="ogonekLC"/>
  <outline>
    <contour>
      <point x="175" y="0" type="line"/>
      <point x="337" y="0" type="line"/>
      <point x="337" y="1023" type="line"/>
      <point x="175" y="1023" type="line"/>
    </contour>
  </outline>
</glyph>
<glyph name="Eng" format="2">
  <advance width="1334"/>
  <unicode hex="014A"/>
  <anchor x="724" y="1433" name="aboveUC"/>
  <anchor x="669" y="-46" name="belowLC"/>
  <outline>
    <contour>
      <point x="877" y="-462" type="curve" smooth="yes"/>
      <point x="1138" y="-462"/>
      <point x="1224" y="-285"/>
      <point x="1224" y="-17" type="curve" smooth="yes"/>
      <point x="1224" y="360"/>
      <point x="1224" y="562"/>
      <point x="1224" y="769" type="curve" smooth="yes"/>
      <point x="1224" y="1244"/>
      <point x="1079" y="1412"/>
      <point x="785" y="1412" type="curve" smooth="yes"/>
      <point x="597" y="1412"/>
      <point x="451" y="1303"/>
      <point x="352" y="1211" type="curve"/>
      <point x="352" y="1386" type="line"/>
      <point x="192" y="1386" type="line"/>
      <point x="192" y="0" type="line"/>
      <point x="356" y="0" type="line"/>
      <point x="356" y="1057" type="line"/>
      <point x="441" y="1155"/>
      <point x="591" y="1266"/>
      <point x="745" y="1266" type="curve" smooth="yes"/>
      <point x="974" y="1266"/>
      <point x="1055" y="1143"/>
      <point x="1055" y="749" type="curve" smooth="yes"/>
      <point x="1055" y="548"/>
      <point x="1055" y="359"/>
      <point x="1055" y="-17" type="curve" smooth="yes"/>
      <point x="1055" y="-234"/>
      <point x="1004" y="-307"/>
      <point x="860" y="-307" type="curve" smooth="yes"/>
      <point x="815" y="-307"/>
      <point x="776" y="-294"/>
      <point x="744" y="-276" type="curve"/>
      <point x="702" y="-423" type="line"/>
      <point x="742" y="-441"/>
      <point x="804" y="-462"/>
    </contour>
  </outline>
</glyph>
<glyph name="dotlessj" format="2">
  <advance width="515"/>
  <unicode hex="0237"/>
  <anchor x="259" y="1074" name="aboveLC"/>
  <anchor x="132" y="-445" name="belowLC"/>
  <outline>
    <contour>
      <point x="65" y="-462" type="curve" smooth="yes"/>
      <point x="263" y="-462"/>
      <point x="339" y="-335"/>
      <point x="339" y="-126" type="curve" smooth="yes"/>
      <point x="339" y="1023" type="line"/>
      <point x="177" y="1023" type="line"/>
      <point x="177" y="-124" type="line" smooth="yes"/>
      <point x="177" y="-251"/>
      <point x="154" y="-329"/>
      <point x="48" y="-329" type="curve" smooth="yes"/>
      <point x="16" y="-329"/>
      <point x="-23" y="-318"/>
      <point x="-48" y="-310" type="curve"/>
      <point x="-82" y="-432" type="line"/>
      <point x="-46" y="-449"/>
      <point x="8" y="-462"/>
    </contour>
  </outline>
</glyph>
<glyph name="schwa" format="2">
  <advance width="1042"/>
  <unicode hex="0259"/>
  <anchor x="521" y="1074" name="aboveLC"/>
  <anchor x="491" y="-46" name="belowLC"/>
  <anchor x="491" y="0" name="ogonekLC"/>
  <outline>
    <contour>
      <point x="500" y="-25" type="curve" smooth="yes"/>
      <point x="749" y="-25"/>
      <point x="943" y="179"/>
      <point x="943" y="512" type="curve" smooth="yes"/>
      <point x="943" y="852"/>
      <point x="751" y="1049"/>
      <point x="496" y="1049" type="curve" smooth="yes"/>
      <point x="350" y="1049"/>
      <point x="240" y="1011"/>
      <point x="143" y="941" type="curve"/>
      <point x="202" y="833" type="line"/>
      <point x="280" y="886"/>
      <point x="365" y="920"/>
      <point x="470" y="920" type="curve" smooth="yes"/>
      <point x="660" y="920"/>
      <point x="772" y="776"/>
      <point x="783" y="565" type="curve"/>
      <point x="86" y="565" type="line"/>
      <point x="82" y="540"/>
      <point x="78" y="504"/>
      <point x="78" y="468" type="curve" smooth="yes"/>
      <point x="78" y="160"/>
      <point x="244" y="-25"/>
    </contour>
    <contour>
      <point x="496" y="103" type="curve" smooth="yes"/>
      <point x="329" y="103"/>
      <point x="223" y="219"/>
      <point x="223" y="449" type="curve"/>
      <point x="785" y="449" type="line"/>
      <point x="764" y="230"/>
      <point x="658" y="103"/>
    </contour>
  </outline>
</glyph>
<glyph name="gammalatin" format="2">
  <advance width="975"/>
  <unicode hex="0263"/>
  <anchor x="485" y="1074" name="aboveLC"/>
  <anchor x="485" y="-462" name="belowLC"/>
  <outline>
    <contour>
      <point x="491" y="-474" type="curve" smooth="yes"/>
      <point x="641" y="-474"/>
      <point x="726" y="-377"/>
      <point x="726" y="-238" type="curve" smooth="yes"/>
      <point x="726" y="-135"/>
      <point x="671" y="-25"/>
      <point x="574" y="156" type="curve"/>
      <point x="574" y="52" type="line"/>
      <point x="949" y="1023" type="line"/>
      <point x="791" y="1023" type="line"/>
      <point x="591" y="468" type="line"/>
      <point x="561" y="373"/>
      <point x="527" y="299"/>
      <point x="496" y="206" type="curve"/>
      <point x="487" y="206" type="line"/>
      <point x="455" y="299"/>
      <point x="422" y="373"/>
      <point x="392" y="468" type="curve"/>
      <point x="192" y="1023" type="line"/>
      <point x="25" y="1023" type="line"/>
      <point x="407" y="52" type="line"/>
      <point x="407" y="156" type="line"/>
      <point x="312" y="-23"/>
      <point x="257" y="-135"/>
      <point x="257" y="-238" type="curve" smooth="yes"/>
      <point x="257" y="-377"/>
      <point x="341" y="-474"/>
    </contour>
    <contour>
      <point x="491" y="-360" type="curve" smooth="yes"/>
      <point x="428" y="-360"/>
      <point x="398" y="-312"/>
      <point x="398" y="-246" type="curve" smooth="yes"/>
      <point x="398" y="-170"/>
      <point x="430" y="-78"/>
      <point x="485" y="23" type="curve"/>
      <point x="496" y="23" type="line"/>
      <point x="553" y="-78"/>
      <point x="584" y="-170"/>
      <point x="584" y="-246" type="curve" smooth="yes"/>
      <point x="584" y="-312"/>
      <point x="555" y="-360"/>
    </contour>
  </outline>
</glyph>
<glyph name="brevecmb" format="2">
  <unicode hex="0306"/>
  <anchor x="0" y="1074" name="_aboveLC"/>
  <outline>
    <contour>
      <point x="0" y="1205" type="curve" smooth="yes"/>
      <point x="225" y="1205"/>
      <point x="314" y="1370"/>
      <point x="327" y="1522" type="curve"/>
      <point x="223" y="1538" type="line"/>
      <point x="208" y="1429"/>
      <point x="139" y="1315"/>
      <point x="0" y="1315" type="curve" smooth="yes"/>
      <point x="-139" y="1315"/>
      <point x="-208" y="1429"/>
      <point x="-223" y="1538" type="curve"/>
      <point x="-327" y="1522" type="line"/>
      <point x="-314" y="1370"/>
      <point x="-223" y="1205"/>
    </contour>
  </outline>
</glyph>
<glyph name="dotaccentcmb" format="2">
  <unicode hex="0307"/>
  <anchor x="0" y="1074" name="_aboveLC"/>
  <anchor x="0" y="1460" name="aboveLC"/>
  <outline>
    <contour>
      <point x="0" y="1239" type="curve" smooth="yes"/>
      <point x="65" y="1239"/>
      <point x="109" y="1283"/>
      <point x="109" y="1351" type="curve" smooth="yes"/>
      <point x="109" y="1414"/>
      <point x="65" y="1458"/>
      <point x="0" y="1458" type="curve" smooth="yes"/>
      <point x="-65" y="1458"/>
      <point x="-109" y="1414"/>
      <point x="-109" y="1351" type="curve" smooth="yes"/>
      <point x="-109" y="1283"/>
      <point x="-65" y="1239"/>
    </contour>
  </outline>
</glyph>
<glyph name="dieresiscmb" format="2">
  <unicode hex="0308"/>
  <anchor x="0" y="1074" name="_aboveLC"/>
  <anchor x="0" y="1460" name="aboveLC"/>
  <outline>
    <contour>
      <point x="-200" y="1243" type="curve" smooth="yes"/>
      <point x="-143" y="1243"/>
      <point x="-99" y="1287"/>
      <point x="-99" y="1342" type="curve" smooth="yes"/>
      <point x="-99" y="1399"/>
      <point x="-143" y="1443"/>
      <point x="-200" y="1443" type="curve" smooth="yes"/>
      <point x="-259" y="1443"/>
      <point x="-301" y="1399"/>
      <point x="-301" y="1342" type="curve" smooth="yes"/>
      <point x="-301" y="1287"/>
      <point x="-259" y="1243"/>
    </contour>
    <contour>
      <point x="200" y="1243" type="curve" smooth="yes"/>
      <point x="259" y="1243"/>
      <point x="301" y="1287"/>
      <point x="301" y="1342" type="curve" smooth="yes"/>
      <point x="301" y="1399"/>
      <point x="259" y="1443"/>
      <point x="200" y="1443" type="curve" smooth="yes"/>
      <point x="143" y="1443"/>
      <point x="99" y="1399"/>
      <point x="99" y="1342" type="curve" smooth="yes"/>
      <point x="99" y="1287"/>
      <point x="143" y="1243"/>
    </contour>
  </outline>
</glyph>
<glyph name="caroncmb" format="2">
  <unicode hex="030C"/>
  <anchor x="0" y="1074" name="_aboveLC"/>
  <outline>
    <contour>
      <point x="-80" y="1211" type="line"/>
      <point x="80" y="1211" type="line"/>
      <point x="320" y="1507" type="line"/>
      <point x="251" y="1572" type="line"/>
      <point x="4" y="1329" type="line"/>
      <point x="-4" y="1329" type="line"/>
      <point x="-251" y="1572" type="line"/>
      <point x="-320" y="1507" type="line"/>
    </contour>
  </outline>
</glyph>
<glyph name="ogonekcmb" format="2">
  <unicode hex="0328"/>
  <anchor x="0" y="0" name="_ogonekLC"/>
  <outline>
    <contour>
      <point x="27" y="-451" type="curve" smooth="yes"/>
      <point x="97" y="-451"/>
      <point x="164" y="-422"/>
      <point x="206" y="-388" type="curve"/>
      <point x="164" y="-299" type="line"/>
      <point x="130" y="-322"/>
      <point x="99" y="-335"/>
      <point x="56" y="-335" type="curve" smooth="yes"/>
      <point x="0" y="-335"/>
      <point x="-52" y="-303"/>
      <point x="-52" y="-227" type="curve" smooth="yes"/>
      <point x="-52" y="-145"/>
      <point x="8" y="-63"/>
      <point x="90" y="6" type="curve"/>
      <point x="-29" y="6" type="line"/>
      <point x="-99" y="-52"/>
      <point x="-181" y="-147"/>
      <point x="-181" y="-259" type="curve" smooth="yes"/>
      <point x="-181" y="-392"/>
      <point x="-88" y="-451"/>
    </contour>
  </outline>
</glyph>
<glyph name="pi" format="2">
  <advance width="1226"/>
  <unicode hex="03C0"/>
  <outline>
    <contour>
      <point x="1017" y="-25" type="curve" smooth="yes"/>
      <point x="1074" y="-25"/>
      <point x="1118" y="-14"/>
      <point x="1154" y="-4" type="curve"/>
      <point x="1131" y="120" type="line"/>
      <point x="1093" y="113"/>
      <point x="1066" y="109"/>
      <point x="1049" y="109" type="curve" smooth="yes"/>
      <point x="983" y="109"/>
      <point x="952" y="139"/>
      <point x="952" y="211" type="curve" smooth="yes"/>
      <point x="952" y="314"/>
      <point x="956" y="652"/>
      <point x="968" y="888" type="curve"/>
      <point x="1175" y="888" type="line"/>
      <point x="1175" y="1023" type="line"/>
      <point x="194" y="1023" type="line"/>
      <point x="48" y="1015" type="line"/>
      <point x="48" y="888" type="line"/>
      <point x="284" y="888" type="line"/>
      <point x="284" y="607"/>
      <point x="257" y="291"/>
      <point x="213" y="0" type="curve"/>
      <point x="377" y="-8" type="line"/>
      <point x="405" y="276"/>
      <point x="436" y="599"/>
      <point x="436" y="888" type="curve"/>
      <point x="812" y="888" type="line"/>
      <point x="808" y="660"/>
      <point x="800" y="333"/>
      <point x="800" y="223" type="curve" smooth="yes"/>
      <point x="800" y="61"/>
      <point x="861" y="-25"/>
    </contour>
  </outline>
</glyph>
<glyph name="hyphentwo" format="2">
  <advance width="652"/>
  <unicode hex="2010"/>
  <outline>
    <contour>
      <point x="86" y="466" type="line"/>
      <point x="567" y="466" type="line"/>
      <point x="567" y="591" type="line"/>
      <point x="86" y="591" type="line"/>
    </contour>
  </outline>
</glyph>
<glyph name="endash" format="2">
  <advance width="1013"/>
  <unicode hex="2013"/>
  <outline>
    <contour>
      <point x="86" y="472" type="line"/>
      <point x="926" y="472" type="line"/>
      <point x="926" y="586" type="line"/>
      <point x="86" y="586" type="line"/>
    </contour>
  </outline>
</glyph>
<glyph name="quoteright" format="2">
  <advance width="517"/>
  <unicode hex="2019"/>
  <outline>
    <contour>
      <point x="179" y="924" type="line"/>
      <point x="318" y="1006"/>
      <point x="396" y="1125"/>
      <point x="396" y="1291" type="curve" smooth="yes"/>
      <point x="396" y="1408"/>
      <point x="348" y="1475"/>
      <point x="270" y="1475" type="curve" smooth="yes"/>
      <point x="206" y="1475"/>
      <point x="162" y="1433"/>
      <point x="162" y="1363" type="curve" smooth="yes"/>
      <point x="162" y="1298"/>
      <point x="213" y="1260"/>
      <point x="270" y="1260" type="curve" smooth="yes"/>
      <point x="301" y="1260"/>
      <point x="322" y="1270"/>
      <point x="348" y="1296" type="curve"/>
      <point x="261" y="1401" type="line"/>
      <point x="287" y="1264" type="line"/>
      <point x="287" y="1144"/>
      <point x="234" y="1070"/>
      <point x="130" y="1000" type="curve"/>
    </contour>
  </outline>
</glyph>
<glyph name="daggerdbl" format="2">
  <advance width="947"/>
  <unicode hex="2021"/>
  <outline>
    <contour>
      <point x="403" y="-168" type="line"/>
      <point x="544" y="-168" type="line"/>
      <point x="534" y="166" type="line"/>
      <point x="831" y="158" type="line"/>
      <point x="831" y="297" type="line"/>
      <point x="534" y="284" type="line"/>
      <point x="544" y="667" type="line"/>
      <point x="534" y="1049" type="line"/>
      <point x="831" y="1036" type="line"/>
      <point x="831" y="1175" type="line"/>
      <point x="534" y="1167" type="line"/>
      <point x="544" y="1503" type="line"/>
      <point x="403" y="1503" type="line"/>
      <point x="413" y="1167" type="line"/>
      <point x="116" y="1175" type="line"/>
      <point x="116" y="1036" type="line"/>
      <point x="413" y="1049" type="line"/>
      <point x="403" y="667" type="line"/>
      <point x="413" y="284" type="line"/>
      <point x="116" y="297" type="line"/>
      <point x="116" y="158" type="line"/>
      <point x="413" y="166" type="line"/>
    </contour>
  </outline>
</glyph>
<glyph name="guilsinglleft" format="2">
  <advance width="567"/>
  <unicode hex="2039"/>
  <outline>
    <contour>
      <point x="382" y="141" type="line"/>
      <point x="453" y="198" type="line"/>
      <point x="202" y="531" type="line"/>
      <point x="453" y="863" type="line"/>
      <point x="382" y="922" type="line"/>
      <point x="92" y="593" type="line"/>
      <point x="92" y="470" type="line"/>
    </contour>
  </outline>
</glyph>
<glyph name="Euro" format="2">
  <advance width="1042"/>
  <unicode hex="20AC"/>
  <outline>
    <contour>
      <point x="679" y="-25" type="curve" smooth="yes"/>
      <point x="833" y="-25"/>
      <point x="947" y="54"/>
      <point x="1021" y="187" type="curve"/>
      <point x="930" y="249" type="line"/>
      <point x="867" y="149"/>
      <point x="791" y="105"/>
      <point x="688" y="105" type="curve" smooth="yes"/>
      <point x="462" y="105"/>
      <point x="339" y="327"/>
      <point x="339" y="677" type="curve" smooth="yes"/>
      <point x="339" y="1023"/>
      <point x="466" y="1241"/>
      <point x="694" y="1241" type="curve" smooth="yes"/>
      <point x="789" y="1241"/>
      <point x="859" y="1203"/>
      <point x="918" y="1123" type="curve"/>
      <point x="1006" y="1199" type="line"/>
      <point x="945" y="1300"/>
      <point x="833" y="1372"/>
      <point x="688" y="1372" type="curve" smooth="yes"/>
      <point x="384" y="1372"/>
      <point x="173" y="1106"/>
      <point x="173" y="673" type="curve" smooth="yes"/>
      <point x="173" y="238"/>
      <point x="375" y="-25"/>
    </contour>
    <contour>
      <point x="48" y="500" type="line"/>
      <point x="810" y="500" type="line"/>
      <point x="810" y="599" type="line"/>
      <point x="189" y="599" type="line"/>
      <point x="48" y="588" type="line"/>
    </contour>
    <contour>
      <point x="48" y="743" type="line"/>
      <point x="895" y="743" type="line"/>
      <point x="895" y="842" type="line"/>
      <point x="194" y="842" type="line"/>
      <point x="48" y="831" type="line"/>
    </contour>
  </outline>
</glyph>
<glyph name="partialdiff" format="2">
  <advance width="1104"/>
  <unicode hex="2202"/>
  <outline>
    <contour>
      <point x="464" y="-25" type="curve" smooth="yes"/>
      <point x="795" y="-25"/>
      <point x="1019" y="297"/>
      <point x="1019" y="776" type="curve" smooth="yes"/>
      <point x="1019" y="1213"/>
      <point x="844" y="1412"/>
      <point x="578" y="1412" type="curve" smooth="yes"/>
      <point x="447" y="1412"/>
      <point x="335" y="1359"/>
      <point x="246" y="1270" type="curve"/>
      <point x="322" y="1169" type="line"/>
      <point x="388" y="1237"/>
      <point x="472" y="1277"/>
      <point x="561" y="1277" type="curve" smooth="yes"/>
      <point x="743" y="1277"/>
      <point x="861" y="1137"/>
      <point x="861" y="772" type="curve" smooth="yes"/>
      <point x="861" y="365"/>
      <point x="711" y="109"/>
      <point x="481" y="109" type="curve" smooth="yes"/>
      <point x="350" y="109"/>
      <point x="238" y="217"/>
      <point x="238" y="388" type="curve" smooth="yes"/>
      <point x="238" y="578"/>
      <point x="337" y="721"/>
      <point x="553" y="721" type="curve" smooth="yes"/>
      <point x="650" y="721"/>
      <point x="755" y="675"/>
      <point x="852" y="553" type="curve"/>
      <point x="871" y="686" type="line"/>
      <point x="785" y="787"/>
      <point x="662" y="850"/>
      <point x="540" y="850" type="curve" smooth="yes"/>
      <point x="255" y="850"/>
      <point x="84" y="656"/>
      <point x="84" y="379" type="curve" smooth="yes"/>
      <point x="84" y="126"/>
      <point x="263" y="-25"/>
    </contour>
  </outline>
</glyph>
<glyph name="summation" format="2">
  <advance width="1059"/>
  <unicode hex="2211"/>
  <outline>
    <contour>
      <point x="44" y="-253" type="line"/>
      <point x="1053" y="-253" type="line"/>
      <point x="1053" y="-113" type="line"/>
      <point x="251" y="-113" type="line"/>
      <point x="251" y="-105" type="line"/>
      <point x="728" y="548" type="line"/>
      <point x="272" y="1199" type="line"/>
      <point x="272" y="1207" type="line"/>
      <point x="992" y="1207" type="line"/>
      <point x="992" y="1346" type="line"/>
      <point x="67" y="1346" type="line"/>
      <point x="67" y="1241" type="line"/>
      <point x="553" y="546" type="line"/>
      <point x="44" y="-147" type="line"/>
    </contour>
  </outline>
</glyph>
<glyph name="minus" format="2">
  <advance width="1042"/>
  <unicode hex="2212"/>
  <outline>
    <contour>
      <point x="71" y="635" type="line"/>
      <point x="971" y="635" type="line"/>
      <point x="971" y="757" type="line"/>
      <point x="71" y="757" type="line"/>
    </contour>
  </outline>
</glyph>
<glyph name="radical" format="2">
  <advance width="1169"/>
  <unicode hex="221A"/>
  <outline>
    <contour>
      <point x="595" y="-204" type="line"/>
      <point x="719" y="-204" type="line"/>
      <point x="1177" y="1731" type="line"/>
      <point x="1059" y="1731" type="line"/>
      <point x="679" y="107" type="line"/>
      <point x="669" y="63"/>
      <point x="662" y="21"/>
      <point x="654" y="-23" type="curve"/>
      <point x="645" y="-23" type="line"/>
      <point x="635" y="21"/>
      <point x="624" y="63"/>
      <point x="610" y="107" type="curve"/>
      <point x="363" y="848" type="line"/>
      <point x="88" y="726" type="line"/>
      <point x="128" y="635" type="line"/>
      <point x="278" y="702" type="line"/>
    </contour>
  </outline>
</glyph>
<glyph name="infinity" format="2">
  <advance width="1644"/>
  <unicode hex="221E"/>
  <outline>
    <contour>
      <point x="1201" y="316" type="curve" smooth="yes"/>
      <point x="1408" y="316"/>
      <point x="1560" y="474"/>
      <point x="1560" y="707" type="curve" smooth="yes"/>
      <point x="1560" y="922"/>
      <point x="1410" y="1072"/>
      <point x="1201" y="1072" type="curve" smooth="yes"/>
      <point x="1021" y="1072"/>
      <point x="890" y="947"/>
      <point x="791" y="816" type="curve"/>
      <point x="783" y="816" type="line"/>
      <point x="707" y="916"/>
      <point x="595" y="1038"/>
      <point x="424" y="1038" type="curve" smooth="yes"/>
      <point x="230" y="1038"/>
      <point x="84" y="905"/>
      <point x="84" y="686" type="curve" smooth="yes"/>
      <point x="84" y="502"/>
      <point x="227" y="354"/>
      <point x="398" y="354" type="curve" smooth="yes"/>
      <point x="576" y="354"/>
      <point x="692" y="491"/>
      <point x="766" y="574" type="curve"/>
      <point x="774" y="574" type="line"/>
      <point x="903" y="417"/>
      <point x="1021" y="316"/>
    </contour>
    <contour>
      <point x="415" y="481" type="curve" smooth="yes"/>
      <point x="301" y="481"/>
      <point x="213" y="569"/>
      <point x="213" y="692" type="curve" smooth="yes"/>
      <point x="213" y="812"/>
      <point x="295" y="884"/>
      <point x="411" y="884" type="curve" smooth="yes"/>
      <point x="521" y="884"/>
      <point x="614" y="802"/>
      <point x="705" y="677" type="curve"/>
      <point x="633" y="569"/>
      <point x="534" y="481"/>
    </contour>
    <contour>
      <point x="1203" y="470" type="curve" smooth="yes"/>
      <point x="1072" y="470"/>
      <point x="975" y="557"/>
      <point x="852" y="715" type="curve"/>
      <point x="958" y="865"/>
      <point x="1063" y="947"/>
      <point x="1188" y="947" type="curve" smooth="yes"/>
      <point x="1342" y="947"/>
      <point x="1431" y="844"/>
      <point x="1431" y="700" type="curve" smooth="yes"/>
      <point x="1431" y="576"/>
      <point x="1346" y="470"/>
    </contour>
  </outline>
</glyph>
<glyph name="integral" format="2">
  <advance width="690"/>
  <unicode hex="222B"/>
  <outline>
    <contour>
      <point x="211" y="-333" type="curve" smooth="yes"/>
      <point x="443" y="-333"/>
      <point x="491" y="-126"/>
      <point x="491" y="145" type="curve" smooth="yes"/>
      <point x="491" y="455"/>
      <point x="405" y="886"/>
      <point x="405" y="1192" type="curve" smooth="yes"/>
      <point x="405" y="1410"/>
      <point x="428" y="1538"/>
      <point x="544" y="1538" type="curve" smooth="yes"/>
      <point x="574" y="1538"/>
      <point x="599" y="1534"/>
      <point x="618" y="1530" type="curve"/>
      <point x="637" y="1652" type="line"/>
      <point x="620" y="1659"/>
      <point x="580" y="1665"/>
      <point x="542" y="1665" type="curve" smooth="yes"/>
      <point x="303" y="1665"/>
      <point x="257" y="1456"/>
      <point x="257" y="1186" type="curve" smooth="yes"/>
      <point x="257" y="878"/>
      <point x="346" y="443"/>
      <point x="346" y="137" type="curve" smooth="yes"/>
      <point x="346" y="-82"/>
      <point x="322" y="-204"/>
      <point x="204" y="-204" type="curve" smooth="yes"/>
      <point x="175" y="-204"/>
      <point x="149" y="-200"/>
      <point x="130" y="-196" type="curve"/>
      <point x="111" y="-318" type="line"/>
      <point x="130" y="-327"/>
      <point x="168" y="-333"/>
    </contour>
  </outline>
</glyph>
<glyph name="lessequal" format="2">
  <advance width="1042"/>
  <unicode hex="2264"/>
  <outline>
    <contour>
      <point x="971" y="322" type="line"/>
      <point x="971" y="464" type="line"/>
      <point x="521" y="622" type="line"/>
      <point x="238" y="717" type="line"/>
      <point x="238" y="726" type="line"/>
      <point x="521" y="819" type="line"/>
      <point x="971" y="979" type="line"/>
      <point x="971" y="1120" type="line"/>
      <point x="71" y="795" type="line"/>
      <point x="71" y="648" type="line"/>
    </contour>
    <contour>
      <point x="71" y="0" type="line"/>
      <point x="971" y="0" type="line"/>
      <point x="971" y="122" type="line"/>
      <point x="71" y="122" type="line"/>
    </contour>
  </outline>
</glyph>
<glyph name="lozenge" format="2">
  <advance width="1085"/>
  <unicode hex="25CA"/>
  <outline>
    <contour>
      <point x="468" y="-21" type="line"/>
      <point x="618" y="-21" type="line"/>
      <point x="966" y="696" type="line"/>
      <point x="618" y="1414" type="line"/>
      <point x="468" y="1414" type="line"/>
      <point x="120" y="696" type="line"/>
    </contour>
    <contour>
      <point x="538" y="116" type="line"/>
      <point x="405" y="396" type="line"/>
      <point x="263" y="696" type="line"/>
      <point x="405" y="994" type="line"/>
      <point x="538" y="1277" type="line"/>
      <point x="546" y="1277" type="line"/>
      <point x="679" y="994" type="line"/>
      <point x="821" y="696" type="line"/>
      <point x="679" y="396" type="line"/>
      <point x="546" y="116" type="line"/>
    </contour>
  </outline>
</glyph>
<glyph name="yaghh-tifi" format="2">
  <advance width="1093"/>
  <unicode hex="2D34"/>
  <anchor x="538" y="1393" name="T"/>
  <outline>
    <contour>
      <point x="514" y="837" type="curve"/>
      <point x="590" y="721" type="line"/>
      <point x="759" y="970"/>
      <point x="917" y="1209"/>
      <point x="917" y="1360" type="curve" smooth="yes"/>
      <point x="917" y="1389"/>
      <point x="904" y="1405"/>
      <point x="862" y="1405" type="curve" smooth="yes"/>
      <point x="820" y="1405"/>
      <point x="757" y="1376"/>
      <point x="749" y="1327" type="curve" smooth="yes"/>
      <point x="721" y="1165"/>
      <point x="634" y="1007"/>
    </contour>
    <contour>
      <point x="550" y="701" type="curve"/>
      <point x="474" y="817" type="line"/>
      <point x="292" y="557"/>
      <point x="100" y="305"/>
      <point x="100" y="58" type="curve" smooth="yes"/>
      <point x="100" y="26"/>
      <point x="115" y="0"/>
      <point x="168" y="0" type="curve" smooth="yes"/>
      <point x="925" y="0" type="line" smooth="yes"/>
      <point x="981" y="0"/>
      <point x="993" y="24"/>
      <point x="993" y="75" type="curve" smooth="yes"/>
      <point x="993" y="376"/>
      <point x="403" y="1044"/>
      <point x="323" y="1363" type="curve" smooth="yes"/>
      <point x="314" y="1400"/>
      <point x="302" y="1404"/>
      <point x="276" y="1404" type="curve" smooth="yes"/>
      <point x="220" y="1404"/>
      <point x="157" y="1349"/>
      <point x="157" y="1309" type="curve" smooth="yes"/>
      <point x="157" y="1072"/>
      <point x="750" y="367"/>
      <point x="802" y="140" type="curve"/>
      <point x="625" y="140"/>
      <point x="449" y="140"/>
      <point x="272" y="140" type="curve"/>
      <point x="291" y="291"/>
      <point x="408" y="491"/>
    </contour>
  </outline>
</glyph>
<glyph name="yajBerberAcademy-tifi" format="2">
  <advance width="1093"/>
  <unicode hex="2D35"/>
  <anchor x="555" y="1393" name="T"/>
  <outline>
    <contour>
      <point x="168" y="0" type="curve" smooth="yes"/>
      <point x="925" y="0" type="line" smooth="yes"/>
      <point x="981" y="0"/>
      <point x="993" y="24"/>
      <point x="993" y="75" type="curve" smooth="yes"/>
      <point x="993" y="365"/>
      <point x="326" y="1125"/>
      <point x="317" y="1253" type="curve"/>
      <point x="477" y="1253"/>
      <point x="638" y="1253"/>
      <point x="798" y="1253" type="curve"/>
      <point x="749" y="1102"/>
      <point x="643" y="946"/>
      <point x="529" y="800" type="curve"/>
      <point x="607" y="690" type="line"/>
      <point x="787" y="924"/>
      <point x="983" y="1170"/>
      <point x="983" y="1325" type="curve" smooth="yes"/>
      <point x="983" y="1367"/>
      <point x="968" y="1393"/>
      <point x="915" y="1393" type="curve" smooth="yes"/>
      <point x="178" y="1393" type="line" smooth="yes"/>
      <point x="122" y="1393"/>
      <point x="110" y="1369"/>
      <point x="110" y="1318" type="curve" smooth="yes"/>
      <point x="110" y="1081"/>
      <point x="750" y="367"/>
      <point x="802" y="140" type="curve"/>
      <point x="625" y="140"/>
      <point x="449" y="140"/>
      <point x="272" y="140" type="curve"/>
      <point x="291" y="287"/>
      <point x="424" y="483"/>
      <point x="567" y="670" type="curve"/>
      <point x="489" y="780" type="line"/>
      <point x="304" y="542"/>
      <point x="100" y="293"/>
      <point x="100" y="58" type="curve" smooth="yes"/>
      <point x="100" y="26"/>
      <point x="115" y="0"/>
    </contour>
  </outline>
</glyph>
<glyph name="yey-tifi" format="2">
  <advance width="1193"/>
  <unicode hex="2D3B"/>
  <outline>
    <component base="ya-tifi.neo" xOffset="125"/>
    <contour>
      <point x="620" y="1046" type="curve" smooth="yes"/>
      <point x="555" y="1046"/>
      <point x="465" y="1089"/>
      <point x="465" y="1175" type="curve" smooth="yes"/>
      <point x="465" y="1240"/>
      <point x="498" y="1282"/>
      <point x="573" y="1282" type="curve" smooth="yes"/>
      <point x="696" y="1282"/>
      <point x="719" y="1206"/>
      <point x="719" y="1146" type="curve" smooth="yes"/>
      <point x="719" y="1098"/>
      <point x="687" y="1046"/>
    </contour>
    <contour>
      <point x="568" y="919" type="curve" smooth="yes"/>
      <point x="717" y="919"/>
      <point x="858" y="1002"/>
      <point x="858" y="1181" type="curve" smooth="yes"/>
      <point x="858" y="1290"/>
      <point x="771" y="1409"/>
      <point x="615" y="1409" type="curve" smooth="yes"/>
      <point x="415" y="1409"/>
      <point x="323" y="1298"/>
      <point x="323" y="1152" type="curve" smooth="yes"/>
      <point x="323" y="983"/>
      <point x="466" y="919"/>
    </contour>
    <contour>
      <point x="1049" y="629" type="curve" smooth="yes"/>
      <point x="1079" y="629"/>
      <point x="1093" y="657"/>
      <point x="1093" y="693" type="curve" smooth="yes"/>
      <point x="1093" y="747"/>
      <point x="1051" y="770"/>
      <point x="1003" y="773" type="curve" smooth="yes"/>
      <point x="924" y="778"/>
      <point x="823" y="776"/>
      <point x="711" y="773" type="curve" smooth="yes"/>
      <point x="631" y="772"/>
      <point x="539" y="767"/>
      <point x="459" y="765" type="curve" smooth="yes"/>
      <point x="295" y="761"/>
      <point x="266" y="761"/>
      <point x="227" y="761" type="curve" smooth="yes"/>
      <point x="179" y="761"/>
      <point x="177" y="770"/>
      <point x="144" y="770" type="curve" smooth="yes"/>
      <point x="114" y="770"/>
      <point x="100" y="742"/>
      <point x="100" y="706" type="curve" smooth="yes"/>
      <point x="100" y="652"/>
      <point x="135" y="634"/>
      <point x="190" y="626" type="curve" smooth="yes"/>
      <point x="229" y="621"/>
      <point x="350" y="622"/>
      <point x="462" y="625" type="curve" smooth="yes"/>
      <point x="542" y="627"/>
      <point x="634" y="632"/>
      <point x="714" y="633" type="curve" smooth="yes"/>
      <point x="878" y="636"/>
      <point x="927" y="638"/>
      <point x="966" y="638" type="curve" smooth="yes"/>
      <point x="1014" y="638"/>
      <point x="1016" y="629"/>
    </contour>
  </outline>
</glyph>
<glyph name="yaf-tifi.neo" format="2">
  <advance width="1606"/>
  <unicode hex="2D3C"/>
  <outline>
    <contour>
      <point x="1416" y="1312" type="curve" smooth="yes"/>
      <point x="1416" y="1376"/>
      <point x="1370" y="1394"/>
      <point x="1293" y="1394" type="curve" smooth="yes"/>
      <point x="1228" y="1394"/>
      <point x="1157" y="1393"/>
      <point x="1146" y="1393" type="curve" smooth="yes"/>
      <point x="1139" y="1393"/>
      <point x="1134" y="1393"/>
      <point x="1047" y="1393" type="curve" smooth="yes"/>
      <point x="955" y="1393"/>
      <point x="902" y="1355"/>
      <point x="902" y="1269" type="curve" smooth="yes"/>
      <point x="902" y="1197"/>
      <point x="898" y="1107"/>
      <point x="898" y="1013" type="curve" smooth="yes"/>
      <point x="898" y="733"/>
      <point x="913" y="664"/>
      <point x="913" y="384" type="curve" smooth="yes"/>
      <point x="913" y="221"/>
      <point x="912" y="169"/>
      <point x="912" y="125" type="curve" smooth="yes"/>
      <point x="912" y="39"/>
      <point x="965" y="1"/>
      <point x="1057" y="1" type="curve" smooth="yes"/>
      <point x="1128" y="1"/>
      <point x="1138" y="1"/>
      <point x="1148" y="1" type="curve" smooth="yes"/>
      <point x="1159" y="1"/>
      <point x="1220" y="0"/>
      <point x="1303" y="0" type="curve" smooth="yes"/>
      <point x="1380" y="0"/>
      <point x="1426" y="18"/>
      <point x="1426" y="82" type="curve" smooth="yes"/>
      <point x="1426" y="118"/>
      <point x="1412" y="146"/>
      <point x="1381" y="146" type="curve" smooth="yes"/>
      <point x="1348" y="146"/>
      <point x="1346" y="137"/>
      <point x="1299" y="137" type="curve" smooth="yes"/>
      <point x="1247" y="137"/>
      <point x="1133" y="137"/>
      <point x="1079" y="142" type="curve"/>
      <point x="1083" y="211"/>
      <point x="1083" y="295"/>
      <point x="1083" y="384" type="curve" smooth="yes"/>
      <point x="1083" y="611"/>
      <point x="1066" y="820"/>
      <point x="1066" y="1072" type="curve" smooth="yes"/>
      <point x="1066" y="1130"/>
      <point x="1067" y="1189"/>
      <point x="1069" y="1252" type="curve"/>
      <point x="1123" y="1257"/>
      <point x="1237" y="1257"/>
      <point x="1289" y="1257" type="curve" smooth="yes"/>
      <point x="1336" y="1257"/>
      <point x="1338" y="1248"/>
      <point x="1371" y="1248" type="curve" smooth="yes"/>
      <point x="1402" y="1248"/>
      <point x="1416" y="1276"/>
    </contour>
    <contour>
      <point x="190" y="82" type="curve" smooth="yes"/>
      <point x="190" y="18"/>
      <point x="236" y="0"/>
      <point x="313" y="0" type="curve" smooth="yes"/>
      <point x="374" y="0"/>
      <point x="446" y="1"/>
      <point x="458" y="1" type="curve" smooth="yes"/>
      <point x="465" y="1"/>
      <point x="468" y="1"/>
      <point x="559" y="1" type="curve" smooth="yes"/>
      <point x="651" y="1"/>
      <point x="704" y="39"/>
      <point x="704" y="125" type="curve" smooth="yes"/>
      <point x="704" y="197"/>
      <point x="708" y="287"/>
      <point x="708" y="381" type="curve" smooth="yes"/>
      <point x="708" y="661"/>
      <point x="693" y="730"/>
      <point x="693" y="1010" type="curve" smooth="yes"/>
      <point x="693" y="1173"/>
      <point x="694" y="1225"/>
      <point x="694" y="1269" type="curve" smooth="yes"/>
      <point x="694" y="1355"/>
      <point x="641" y="1393"/>
      <point x="549" y="1393" type="curve" smooth="yes"/>
      <point x="465" y="1393"/>
      <point x="461" y="1393"/>
      <point x="452" y="1393" type="curve" smooth="yes"/>
      <point x="441" y="1393"/>
      <point x="371" y="1394"/>
      <point x="303" y="1394" type="curve" smooth="yes"/>
      <point x="226" y="1394"/>
      <point x="180" y="1376"/>
      <point x="180" y="1312" type="curve" smooth="yes"/>
      <point x="180" y="1276"/>
      <point x="194" y="1248"/>
      <point x="225" y="1248" type="curve" smooth="yes"/>
      <point x="258" y="1248"/>
      <point x="260" y="1257"/>
      <point x="307" y="1257" type="curve" smooth="yes"/>
      <point x="359" y="1257"/>
      <point x="473" y="1257"/>
      <point x="527" y="1252" type="curve"/>
      <point x="523" y="1183"/>
      <point x="523" y="1099"/>
      <point x="523" y="1010" type="curve" smooth="yes"/>
      <point x="523" y="783"/>
      <point x="540" y="574"/>
      <point x="540" y="322" type="curve" smooth="yes"/>
      <point x="540" y="264"/>
      <point x="539" y="205"/>
      <point x="537" y="142" type="curve"/>
      <point x="483" y="137"/>
      <point x="369" y="137"/>
      <point x="317" y="137" type="curve" smooth="yes"/>
      <point x="270" y="137"/>
      <point x="268" y="146"/>
      <point x="235" y="146" type="curve" smooth="yes"/>
      <point x="204" y="146"/>
      <point x="190" y="118"/>
    </contour>
    <contour>
      <point x="659" y="623" type="curve" smooth="yes"/>
      <point x="763" y="623"/>
      <point x="818" y="630"/>
      <point x="916" y="630" type="curve" smooth="yes"/>
      <point x="1007" y="630"/>
      <point x="967" y="619"/>
      <point x="1013" y="619" type="curve" smooth="yes"/>
      <point x="1042" y="619"/>
      <point x="1059" y="646"/>
      <point x="1059" y="682" type="curve" smooth="yes"/>
      <point x="1059" y="733"/>
      <point x="1040" y="772"/>
      <point x="940" y="772" type="curve" smooth="yes"/>
      <point x="836" y="772"/>
      <point x="781" y="765"/>
      <point x="683" y="765" type="curve" smooth="yes"/>
      <point x="592" y="765"/>
      <point x="632" y="776"/>
      <point x="586" y="776" type="curve" smooth="yes"/>
      <point x="557" y="776"/>
      <point x="540" y="749"/>
      <point x="540" y="713" type="curve" smooth="yes"/>
      <point x="540" y="662"/>
      <point x="559" y="623"/>
    </contour>
  </outline>
</glyph>
<glyph name="yal-tifi.neo" format="2">
  <advance width="949"/>
  <unicode hex="2D4D"/>
  <outline>
    <component base="_VerticalBar" xOffset="-86"/>
    <component base="_VerticalBar" xOffset="-450"/>
    <contour>
      <point x="291" y="405" type="curve" smooth="yes"/>
      <point x="317" y="405"/>
      <point x="340" y="422"/>
      <point x="363" y="449" type="curve" smooth="yes"/>
      <point x="387" y="478"/>
      <point x="450" y="576"/>
      <point x="464" y="599" type="curve" smooth="yes"/>
      <point x="511" y="675"/>
      <point x="529" y="709"/>
      <point x="567" y="771" type="curve" smooth="yes"/>
      <point x="622" y="859"/>
      <point x="648" y="898"/>
      <point x="667" y="930" type="curve" smooth="yes"/>
      <point x="688" y="965"/>
      <point x="724" y="985"/>
      <point x="724" y="1015" type="curve" smooth="yes"/>
      <point x="724" y="1044"/>
      <point x="691" y="1074"/>
      <point x="661" y="1074" type="curve" smooth="yes"/>
      <point x="633" y="1074"/>
      <point x="606" y="1056"/>
      <point x="587" y="1030" type="curve" smooth="yes"/>
      <point x="543" y="970"/>
      <point x="491" y="887"/>
      <point x="463" y="839" type="curve" smooth="yes"/>
      <point x="426" y="777"/>
      <point x="411" y="752"/>
      <point x="361" y="669" type="curve" smooth="yes"/>
      <point x="320" y="602"/>
      <point x="303" y="581"/>
      <point x="283" y="549" type="curve" smooth="yes"/>
      <point x="260" y="512"/>
      <point x="226" y="493"/>
      <point x="226" y="463" type="curve" smooth="yes"/>
      <point x="226" y="434"/>
      <point x="260" y="405"/>
    </contour>
  </outline>
</glyph>
<glyph name="yash-tifi.neo" format="2">
  <advance width="1277"/>
  <unicode hex="2D5B"/>
  <outline>
    <contour>
      <point x="1177" y="1200" type="curve" smooth="yes"/>
      <point x="1177" y="1299"/>
      <point x="1080" y="1408"/>
      <point x="914" y="1408" type="curve" smooth="yes"/>
      <point x="588" y="1408"/>
      <point x="105" y="1217"/>
      <point x="105" y="675" type="curve" smooth="yes"/>
      <point x="105" y="143"/>
      <point x="568" y="-30"/>
      <point x="863" y="-30" type="curve" smooth="yes"/>
      <point x="1078" y="-30"/>
      <point x="1177" y="102"/>
      <point x="1177" y="251" type="curve" smooth="yes"/>
      <point x="1177" y="370"/>
      <point x="1071" y="460"/>
      <point x="947" y="460" type="curve" smooth="yes"/>
      <point x="823" y="460"/>
      <point x="639" y="360"/>
      <point x="639" y="177" type="curve" smooth="yes"/>
      <point x="639" y="34"/>
      <point x="706" y="7"/>
      <point x="739" y="7" type="curve" smooth="yes"/>
      <point x="772" y="7"/>
      <point x="849" y="42"/>
      <point x="849" y="93" type="curve" smooth="yes"/>
      <point x="849" y="114"/>
      <point x="795" y="115"/>
      <point x="795" y="219" type="curve" smooth="yes"/>
      <point x="795" y="296"/>
      <point x="830" y="320"/>
      <point x="894" y="320" type="curve" smooth="yes"/>
      <point x="955" y="320"/>
      <point x="1015" y="280"/>
      <point x="1015" y="204" type="curve" smooth="yes"/>
      <point x="1015" y="128"/>
      <point x="970" y="102"/>
      <point x="914" y="102" type="curve" smooth="yes"/>
      <point x="808" y="102"/>
      <point x="275" y="196"/>
      <point x="275" y="698" type="curve" smooth="yes"/>
      <point x="275" y="1190"/>
      <point x="696" y="1269"/>
      <point x="865" y="1269" type="curve" smooth="yes"/>
      <point x="1004" y="1269"/>
      <point x="1024" y="1181"/>
      <point x="1024" y="1138" type="curve" smooth="yes"/>
      <point x="1024" y="1095"/>
      <point x="1005" y="1057"/>
      <point x="946" y="1057" type="curve" smooth="yes"/>
      <point x="887" y="1057"/>
      <point x="797" y="1096"/>
      <point x="797" y="1172" type="curve" smooth="yes"/>
      <point x="797" y="1232"/>
      <point x="852" y="1283"/>
      <point x="852" y="1328" type="curve" smooth="yes"/>
      <point x="852" y="1356"/>
      <point x="829" y="1358"/>
      <point x="795" y="1358" type="curve" smooth="yes"/>
      <point x="761" y="1358"/>
      <point x="642" y="1300"/>
      <point x="642" y="1131" type="curve" smooth="yes"/>
      <point x="642" y="982"/>
      <point x="785" y="918"/>
      <point x="887" y="918" type="curve" smooth="yes"/>
      <point x="1036" y="918"/>
      <point x="1177" y="1011"/>
    </contour>
  </outline>
</glyph>
<glyph name="yat-tifi.neo" format="2">
  <advance width="1147"/>
  <unicode hex="2D5C"/>
  <outline>
    <component base="_VerticalBar" xOffset="-169"/>
    <contour>
      <point x="1003" y="625" type="curve" smooth="yes"/>
      <point x="1033" y="625"/>
      <point x="1047" y="653"/>
      <point x="1047" y="689" type="curve" smooth="yes"/>
      <point x="1047" y="743"/>
      <point x="1005" y="765"/>
      <point x="957" y="768" type="curve" smooth="yes"/>
      <point x="888" y="773"/>
      <point x="857" y="773"/>
      <point x="765" y="772" type="curve" smooth="yes"/>
      <point x="685" y="771"/>
      <point x="627" y="766"/>
      <point x="547" y="766" type="curve" smooth="yes"/>
      <point x="383" y="766"/>
      <point x="266" y="762"/>
      <point x="227" y="762" type="curve" smooth="yes"/>
      <point x="179" y="762"/>
      <point x="177" y="770"/>
      <point x="144" y="770" type="curve" smooth="yes"/>
      <point x="114" y="770"/>
      <point x="100" y="742"/>
      <point x="100" y="706" type="curve" smooth="yes"/>
      <point x="100" y="652"/>
      <point x="142" y="630"/>
      <point x="190" y="627" type="curve" smooth="yes"/>
      <point x="269" y="622"/>
      <point x="438" y="623"/>
      <point x="550" y="626" type="curve" smooth="yes"/>
      <point x="629" y="627"/>
      <point x="688" y="631"/>
      <point x="768" y="631" type="curve" smooth="yes"/>
      <point x="832" y="631"/>
      <point x="881" y="633"/>
      <point x="920" y="633" type="curve" smooth="yes"/>
      <point x="968" y="633"/>
      <point x="970" y="625"/>
    </contour>
  </outline>
</glyph>
<glyph name="ye-tifi" format="2">
  <advance width="1414"/>
  <unicode hex="2D66"/>
  <outline>
    <contour>
      <point x="1246" y="323" type="curve" smooth="yes"/>
      <point x="1093" y="323"/>
      <point x="602" y="630"/>
      <point x="332" y="747" type="curve"/>
      <point x="332" y="722" type="line"/>
      <point x="553" y="818"/>
      <point x="639" y="864"/>
      <point x="957" y="1011" type="curve" smooth="yes"/>
      <point x="1228" y="1136"/>
      <point x="1277" y="1166"/>
      <point x="1277" y="1230" type="curve" smooth="yes"/>
      <point x="1277" y="1275"/>
      <point x="1247" y="1290"/>
      <point x="1217" y="1290" type="curve" smooth="yes"/>
      <point x="1203" y="1290"/>
      <point x="1187" y="1285"/>
      <point x="1170" y="1277" type="curve" smooth="yes"/>
      <point x="1134" y="1261"/>
      <point x="1093" y="1236"/>
      <point x="882" y="1139" type="curve" smooth="yes"/>
      <point x="570" y="996"/>
      <point x="527" y="969"/>
      <point x="228" y="838" type="curve" smooth="yes"/>
      <point x="134" y="797"/>
      <point x="105" y="751"/>
      <point x="105" y="716" type="curve" smooth="yes"/>
      <point x="105" y="667"/>
      <point x="138" y="641"/>
      <point x="207" y="614" type="curve" smooth="yes"/>
      <point x="486" y="506"/>
      <point x="1009" y="170"/>
      <point x="1218" y="170" type="curve" smooth="yes"/>
      <point x="1275" y="170"/>
      <point x="1323" y="221"/>
      <point x="1323" y="272" type="curve" smooth="yes"/>
      <point x="1323" y="303"/>
      <point x="1315" y="323"/>
    </contour>
  </outline>
</glyph>
<glyph name="_AltIndicator" format="2">
  <advance width="1001"/>
  <outline>
    <contour>
      <point x="183" y="1727" type="line"/>
      <point x="257" y="1732" type="line"/>
      <point x="283" y="1765" type="line"/>
      <point x="241" y="1776" type="line"/>
      <point x="180" y="1736" type="line"/>
    </contour>
    <contour>
      <point x="174" y="1742" type="line"/>
      <point x="194" y="1813" type="line"/>
      <point x="170" y="1848" type="line"/>
      <point x="147" y="1813" type="line"/>
      <point x="166" y="1742" type="line"/>
    </contour>
    <contour>
      <point x="173" y="1715" type="line"/>
      <point x="200" y="1646" type="line"/>
      <point x="239" y="1631" type="line"/>
      <point x="239" y="1673" type="line"/>
      <point x="180" y="1720" type="line"/>
    </contour>
    <contour>
      <point x="160" y="1736" type="line"/>
      <point x="99" y="1776" type="line"/>
      <point x="57" y="1765" type="line"/>
      <point x="82" y="1732" type="line"/>
      <point x="157" y="1727" type="line"/>
    </contour>
    <contour>
      <point x="160" y="1720" type="line"/>
      <point x="101" y="1673" type="line"/>
      <point x="101" y="1631" type="line"/>
      <point x="140" y="1646" type="line"/>
      <point x="167" y="1715" type="line"/>
    </contour>
  </outline>
</glyph>
<glyph name="_Dot" format="2">
  <advance width="1470"/>
  <outline>
    <contour>
      <point x="786" y="727" type="curve" smooth="yes"/>
      <point x="786" y="794"/>
      <point x="749" y="831"/>
      <point x="682" y="831" type="curve" smooth="yes"/>
      <point x="613" y="831"/>
      <point x="540" y="758"/>
      <point x="540" y="689" type="curve" smooth="yes"/>
      <point x="540" y="622"/>
      <point x="577" y="585"/>
      <point x="644" y="585" type="curve" smooth="yes"/>
      <point x="713" y="585"/>
      <point x="786" y="658"/>
    </contour>
  </outline>
</glyph>
<glyph name="_HorizontalBarMedShort2" format="2">
  <advance width="1470"/>
  <outline>
    <contour>
      <point x="629" y="6" type="curve" smooth="yes"/>
      <point x="659" y="6"/>
      <point x="673" y="34"/>
      <point x="673" y="70" type="curve" smooth="yes"/>
      <point x="673" y="124"/>
      <point x="631" y="145"/>
      <point x="583" y="149" type="curve" smooth="yes"/>
      <point x="504" y="156"/>
      <point x="444" y="151"/>
      <point x="332" y="151" type="curve" smooth="yes"/>
      <point x="319" y="151" type="line" smooth="yes"/>
      <point x="255" y="151"/>
      <point x="166" y="148"/>
      <point x="127" y="148" type="curve" smooth="yes"/>
      <point x="79" y="148"/>
      <point x="77" y="156"/>
      <point x="44" y="156" type="curve" smooth="yes"/>
      <point x="14" y="156"/>
      <point x="0" y="128"/>
      <point x="0" y="92" type="curve" smooth="yes"/>
      <point x="0" y="38"/>
      <point x="42" y="17"/>
      <point x="90" y="13" type="curve" smooth="yes"/>
      <point x="169" y="6"/>
      <point x="209" y="11"/>
      <point x="321" y="11" type="curve" smooth="yes"/>
      <point x="334" y="11" type="line" smooth="yes"/>
      <point x="398" y="11"/>
      <point x="507" y="14"/>
      <point x="546" y="14" type="curve" smooth="yes"/>
      <point x="594" y="14"/>
      <point x="596" y="6"/>
    </contour>
  </outline>
</glyph>
<glyph name="_VerticalBar" format="2">
  <advance width="1470"/>
  <outline>
    <contour>
      <point x="717" y="0" type="curve" smooth="yes"/>
      <point x="771" y="0"/>
      <point x="824" y="41"/>
      <point x="828" y="89" type="curve" smooth="yes"/>
      <point x="835" y="167"/>
      <point x="835" y="268"/>
      <point x="835" y="380" type="curve" smooth="yes"/>
      <point x="835" y="660"/>
      <point x="820" y="733"/>
      <point x="820" y="1013" type="curve" smooth="yes"/>
      <point x="820" y="1177"/>
      <point x="821" y="1226"/>
      <point x="821" y="1265" type="curve" smooth="yes"/>
      <point x="821" y="1313"/>
      <point x="831" y="1314"/>
      <point x="831" y="1347" type="curve" smooth="yes"/>
      <point x="831" y="1377"/>
      <point x="804" y="1393"/>
      <point x="768" y="1393" type="curve" smooth="yes"/>
      <point x="714" y="1393"/>
      <point x="661" y="1352"/>
      <point x="657" y="1304" type="curve" smooth="yes"/>
      <point x="650" y="1226"/>
      <point x="650" y="1125"/>
      <point x="650" y="1013" type="curve" smooth="yes"/>
      <point x="650" y="733"/>
      <point x="665" y="660"/>
      <point x="665" y="380" type="curve" smooth="yes"/>
      <point x="665" y="216"/>
      <point x="664" y="167"/>
      <point x="664" y="128" type="curve" smooth="yes"/>
      <point x="664" y="80"/>
      <point x="654" y="79"/>
      <point x="654" y="46" type="curve" smooth="yes"/>
      <point x="654" y="16"/>
      <point x="681" y="0"/>
    </contour>
  </outline>
</glyph>
<glyph name="_VerticalBarMedium" format="2">
  <advance width="1470"/>
  <outline>
    <contour>
      <point x="180" y="196" type="curve" smooth="yes"/>
      <point x="180" y="254"/>
      <point x="174" y="363"/>
      <point x="174" y="421" type="curve" smooth="yes"/>
      <point x="174" y="612"/>
      <point x="183" y="572"/>
      <point x="183" y="618" type="curve" smooth="yes"/>
      <point x="183" y="647"/>
      <point x="156" y="664"/>
      <point x="120" y="664" type="curve" smooth="yes"/>
      <point x="88" y="664"/>
      <point x="61" y="654"/>
      <point x="44" y="637" type="curve" smooth="yes"/>
      <point x="8" y="601"/>
      <point x="3" y="538"/>
      <point x="3" y="456" type="curve" smooth="yes"/>
      <point x="3" y="398"/>
      <point x="9" y="289"/>
      <point x="9" y="231" type="curve" smooth="yes"/>
      <point x="9" y="40"/>
      <point x="0" y="90"/>
      <point x="0" y="44" type="curve" smooth="yes"/>
      <point x="0" y="15"/>
      <point x="27" y="-2"/>
      <point x="63" y="-2" type="curve" smooth="yes"/>
      <point x="106" y="-2"/>
      <point x="134" y="12"/>
      <point x="151" y="35" type="curve" smooth="yes"/>
      <point x="176" y="69"/>
      <point x="180" y="125"/>
    </contour>
  </outline>
</glyph>
<glyph name="_VerticalBarSmall" format="2">
  <advance width="1470"/>
  <outline>
    <contour>
      <point x="63" y="-2" type="curve" smooth="yes"/>
      <point x="106" y="-2"/>
      <point x="134" y="12"/>
      <point x="151" y="35" type="curve" smooth="yes"/>
      <point x="176" y="69"/>
      <point x="180" y="125"/>
      <point x="180" y="196" type="curve" smooth="yes"/>
      <point x="180" y="254"/>
      <point x="174" y="286"/>
      <point x="174" y="344" type="curve" smooth="yes"/>
      <point x="174" y="535"/>
      <point x="183" y="495"/>
      <point x="183" y="541" type="curve" smooth="yes"/>
      <point x="183" y="570"/>
      <point x="156" y="587"/>
      <point x="120" y="587" type="curve" smooth="yes"/>
      <point x="88" y="587"/>
      <point x="61" y="577"/>
      <point x="44" y="560" type="curve" smooth="yes"/>
      <point x="8" y="525"/>
      <point x="3" y="461"/>
      <point x="3" y="379" type="curve" smooth="yes"/>
      <point x="3" y="321"/>
      <point x="9" y="289"/>
      <point x="9" y="231" type="curve" smooth="yes"/>
      <point x="9" y="40"/>
      <point x="0" y="90"/>
      <point x="0" y="44" type="curve" smooth="yes"/>
      <point x="0" y="15"/>
      <point x="27" y="-2"/>
    </contour>
  </outline>
</glyph>
<glyph name="brevecmb.cap" format="2">
  <anchor x="0" y="1433" name="_aboveUC"/>
  <outline>
    <contour>
      <point x="0" y="1490" type="curve" smooth="yes"/>
      <point x="194" y="1490"/>
      <point x="287" y="1617"/>
      <point x="306" y="1760" type="curve"/>
      <point x="204" y="1777" type="line"/>
      <point x="187" y="1676"/>
      <point x="122" y="1595"/>
      <point x="0" y="1595" type="curve" smooth="yes"/>
      <point x="-122" y="1595"/>
      <point x="-187" y="1676"/>
      <point x="-204" y="1777" type="curve"/>
      <point x="-306" y="1760" type="line"/>
      <point x="-287" y="1617"/>
      <point x="-194" y="1490"/>
    </contour>
  </outline>
</glyph>
<glyph name="dieresiscmb.cap" format="2">
  <anchor x="0" y="1433" name="_aboveUC"/>
  <outline>
    <contour>
      <point x="-215" y="1513" type="curve" smooth="yes"/>
      <point x="-158" y="1513"/>
      <point x="-116" y="1553"/>
      <point x="-116" y="1612" type="curve" smooth="yes"/>
      <point x="-116" y="1671"/>
      <point x="-158" y="1712"/>
      <point x="-215" y="1712" type="curve" smooth="yes"/>
      <point x="-272" y="1712"/>
      <point x="-314" y="1671"/>
      <point x="-314" y="1612" type="curve" smooth="yes"/>
      <point x="-314" y="1553"/>
      <point x="-272" y="1513"/>
    </contour>
    <contour>
      <point x="215" y="1513" type="curve" smooth="yes"/>
      <point x="272" y="1513"/>
      <point x="314" y="1553"/>
      <point x="314" y="1612" type="curve" smooth="yes"/>
      <point x="314" y="1671"/>
      <point x="272" y="1712"/>
      <point x="215" y="1712" type="curve" smooth="yes"/>
      <point x="158" y="1712"/>
      <point x="116" y="1671"/>
      <point x="116" y="1612" type="curve" smooth="yes"/>
      <point x="116" y="1553"/>
      <point x="158" y="1513"/>
    </contour>
  </outline>
</glyph>
<glyph name="gravecmb.cap" format="2">
  <anchor x="0" y="1433" name="_aboveUC"/>
  <outline>
    <contour>
      <point x="116" y="1473" type="line"/>
      <point x="181" y="1555" type="line"/>
      <point x="-192" y="1826" type="line"/>
      <point x="-268" y="1716" type="line"/>
    </contour>
  </outline>
</glyph>
<glyph name="o.sups" format="2">
  <advance width="768"/>
  <outline>
    <contour>
      <point x="382" y="819" type="curve" smooth="yes"/>
      <point x="555" y="819"/>
      <point x="702" y="952"/>
      <point x="702" y="1175" type="curve" smooth="yes"/>
      <point x="702" y="1401"/>
      <point x="555" y="1530"/>
      <point x="382" y="1530" type="curve" smooth="yes"/>
      <point x="208" y="1530"/>
      <point x="63" y="1401"/>
      <point x="63" y="1175" type="curve" smooth="yes"/>
      <point x="63" y="952"/>
      <point x="208" y="819"/>
    </contour>
    <contour>
      <point x="382" y="922" type="curve" smooth="yes"/>
      <point x="263" y="922"/>
      <point x="189" y="1025"/>
      <point x="189" y="1175" type="curve" smooth="yes"/>
      <point x="189" y="1327"/>
      <point x="263" y="1429"/>
      <point x="382" y="1429" type="curve" smooth="yes"/>
      <point x="502" y="1429"/>
      <point x="574" y="1327"/>
      <point x="574" y="1175" type="curve" smooth="yes"/>
      <point x="574" y="1025"/>
      <point x="502" y="922"/>
    </contour>
  </outline>
</glyph>
<glyph name="three.dnom" format="2">
  <advance width="774"/>
  <outline>
    <contour>
      <point x="379" y="-25" type="curve" smooth="yes"/>
      <point x="538" y="-25"/>
      <point x="669" y="67"/>
      <point x="669" y="219" type="curve" smooth="yes"/>
      <point x="669" y="331"/>
      <point x="584" y="401"/>
      <point x="489" y="424" type="curve"/>
      <point x="576" y="462"/>
      <point x="637" y="529"/>
      <point x="637" y="629" type="curve" smooth="yes"/>
      <point x="637" y="766"/>
      <point x="517" y="848"/>
      <point x="375" y="848" type="curve" smooth="yes"/>
      <point x="263" y="848"/>
      <point x="179" y="793"/>
      <point x="109" y="713" type="curve"/>
      <point x="187" y="645" type="line"/>
      <point x="234" y="705"/>
      <point x="295" y="747"/>
      <point x="356" y="747" type="curve" smooth="yes"/>
      <point x="449" y="747"/>
      <point x="510" y="692"/>
      <point x="510" y="612" type="curve" smooth="yes"/>
      <point x="510" y="527"/>
      <point x="426" y="460"/>
      <point x="280" y="460" type="curve"/>
      <point x="280" y="377" type="line"/>
      <point x="445" y="377"/>
      <point x="542" y="325"/>
      <point x="542" y="227" type="curve" smooth="yes"/>
      <point x="542" y="130"/>
      <point x="466" y="75"/>
      <point x="373" y="75" type="curve" smooth="yes"/>
      <point x="287" y="75"/>
      <point x="213" y="124"/>
      <point x="162" y="200" type="curve"/>
      <point x="75" y="135" type="line"/>
      <point x="139" y="44"/>
      <point x="246" y="-25"/>
    </contour>
  </outline>
</glyph>
<glyph name="tildecmb.cap" format="2">
  <anchor x="0" y="1433" name="_aboveUC"/>
  <outline>
    <contour>
      <point x="160" y="1498" type="curve" smooth="yes"/>
      <point x="282" y="1498"/>
      <point x="363" y="1598"/>
      <point x="369" y="1754" type="curve"/>
      <point x="259" y="1762" type="line"/>
      <point x="246" y="1671"/>
      <point x="211" y="1621"/>
      <point x="156" y="1621" type="curve" smooth="yes"/>
      <point x="52" y="1621"/>
      <point x="0" y="1773"/>
      <point x="-160" y="1773" type="curve" smooth="yes"/>
      <point x="-282" y="1773"/>
      <point x="-363" y="1674"/>
      <point x="-369" y="1517" type="curve"/>
      <point x="-259" y="1509" type="line"/>
      <point x="-251" y="1600"/>
      <point x="-211" y="1650"/>
      <point x="-156" y="1650" type="curve" smooth="yes"/>
      <point x="-52" y="1650"/>
      <point x="0" y="1498"/>
    </contour>
  </outline>
</glyph>
<glyph name="two.dnom" format="2">
  <advance width="774"/>
  <outline>
    <contour>
      <point x="111" y="0" type="line"/>
      <point x="673" y="0" type="line"/>
      <point x="673" y="109" type="line"/>
      <point x="316" y="109" type="line"/>
      <point x="498" y="293"/>
      <point x="629" y="422"/>
      <point x="629" y="582" type="curve" smooth="yes"/>
      <point x="629" y="757"/>
      <point x="521" y="848"/>
      <point x="358" y="848" type="curve" smooth="yes"/>
      <point x="246" y="848"/>
      <point x="147" y="781"/>
      <point x="86" y="690" type="curve"/>
      <point x="162" y="620" type="line"/>
      <point x="208" y="688"/>
      <point x="270" y="740"/>
      <point x="341" y="740" type="curve" smooth="yes"/>
      <point x="441" y="740"/>
      <point x="504" y="673"/>
      <point x="504" y="563" type="curve" smooth="yes"/>
      <point x="504" y="439"/>
      <point x="371" y="308"/>
      <point x="111" y="73" type="curve"/>
    </contour>
  </outline>
</glyph>
